<svg width="124" height="92" viewBox="0 0 124 92" fill="none" xmlns="http://www.w3.org/2000/svg">
<path d="M109.257 45.6932C109.257 70.9288 88.6044 91.3864 63.1284 91.3864C37.6524 91.3864 17 70.9288 17 45.6932C17 20.4575 37.6524 0 63.1284 0C88.6044 0 109.257 20.4575 109.257 45.6932Z" fill="#F5F5F5"/>
<g>
<path d="M3.62667 30.1949C3.62667 30.1949 1.80518 17.8016 2.65521 16.5502C3.4 15.4521 9.39876 14.9112 11.6412 15.6621C11.6412 15.6621 17.0085 14.2895 20.8701 15.5087C20.8701 15.5087 25.6707 14.4268 29.3704 15.8235C29.3704 15.8235 34.1467 15.2099 36.3325 16.9539C38.2187 18.4637 37.1663 30.526 36.9801 31.6078C36.9801 31.6078 38.6316 36.5087 37.5792 44.6632L19.8986 45.8904C19.8986 45.8904 20.3196 37.9296 19.8581 37.1384C18.8219 35.3622 9.5121 32.0519 3.62667 30.1949Z" fill="#685A5A"/>
<path d="M37.7736 29.2341C37.7736 29.2341 37.636 31.1153 37.636 31.4787C37.636 31.842 39.2794 37.5582 38.1703 44.6551C38.1703 44.6551 45.3429 45.8904 54.3289 50.2906C54.3289 50.2906 54.7499 36.0727 55.5189 34.8212C56.2799 33.5778 57.8585 33.6586 57.8585 33.6586C57.8585 33.6586 41.6595 29.5975 37.7736 29.2341Z" fill="#685A5A"/>
<path d="M55.6645 37.9781C55.8021 36.6217 55.8264 34.6921 56.9678 34.4821C58.5465 34.1915 58.9998 34.2964 58.9998 36.2342C58.9998 38.1719 58.5222 57.8478 57.0245 58.8166L56.2635 58.97C56.2635 58.97 57.5507 53.9481 56.9436 52.3576C56.5874 51.4129 54.9197 50.541 54.9197 50.541C54.9197 50.541 55.5268 39.3345 55.6645 37.9781Z" fill="#685A5A"/>
<path d="M19.9635 46.5848C19.9635 46.5848 36.9155 45.2607 37.8465 45.2607C39.1499 45.2607 55.098 50.2907 56.029 52.6321C56.5147 53.8432 56.3771 55.4983 55.3975 59.5352L20.3197 65.0254L19.1702 63.9758C19.1702 63.9839 20.085 48.7566 19.9635 46.5848Z" fill="#685A5A"/>
<path d="M13.827 64.4925C11.2688 61.7878 4.51719 56.677 -9.40864e-05 53.9723C-9.40864e-05 53.9723 0.0970519 36.8962 0.0646699 34.9342C0.0646699 34.9342 -0.534397 30.6632 1.82139 30.5259C4.17718 30.3887 13.908 34.2883 17.7048 36.2583C17.7048 36.2583 15.2518 35.9677 14.758 37.5017C13.8837 40.2064 13.827 64.4925 13.827 64.4925Z" fill="#685A5A"/>
<path d="M15.4462 37.752C15.9157 36.8558 18.9677 36.2987 19.3725 37.752C19.7773 39.2053 18.7815 64.331 18.5306 64.5894C18.3039 64.8154 14.7986 65.4775 14.4909 65.0334C14.2157 64.6297 14.7419 39.1165 15.4462 37.752Z" fill="#685A5A"/>
<path d="M13.6245 65.1142C13.6245 65.1142 13.9241 65.7359 14.5312 65.9458C14.855 66.0588 18.3928 65.5986 18.3928 65.5986L17.7775 91.5398L14.7822 92.0081L13.3655 90.5548L13.6245 65.1142Z" fill="#FF9A51"/>
<path d="M0.712402 55.2399L4.51729 57.767V77.346L1.91054 77.7901L0.858121 76.6194L0.712402 55.2399Z" fill="#FF9A51"/>
<path d="M52.3535 60.7624L55.9398 60.1488L56.1179 59.6321L56.9598 59.4868L55.1788 82.594L52.993 83.1754L51.1392 82.158L52.3535 60.7624Z" fill="#FF9A51"/>
<path d="M34.6728 63.459L38.2511 62.9181L37.9353 71.2099L35.8467 71.7347L34.4705 70.8062L34.6728 63.459Z" fill="#FF9A51"/>
<path d="M13.3064 24.9428C13.6621 24.9053 13.9123 24.5153 13.8653 24.0719C13.8182 23.6284 13.4917 23.2994 13.136 23.3369C12.7803 23.3744 12.5301 23.7643 12.5771 24.2078C12.6241 24.6512 12.9506 24.9803 13.3064 24.9428Z" fill="#FF9A51"/>
<path d="M21.8496 24.6116C22.1831 24.5764 22.4176 24.21 22.3734 23.7931C22.3292 23.3763 22.023 23.0669 21.6895 23.1021C21.356 23.1373 21.1215 23.5037 21.1657 23.9205C21.21 24.3374 21.5161 24.6468 21.8496 24.6116Z" fill="#FF9A51"/>
<path d="M22.5514 41.9744C22.8548 41.9942 23.1204 41.7109 23.1446 41.3416C23.1689 40.9723 22.9426 40.6568 22.6392 40.637C22.3358 40.6172 22.0702 40.9005 22.046 41.2699C22.0217 41.6392 22.248 41.9546 22.5514 41.9744Z" fill="#FF9A51"/>
<path d="M30.4867 41.8139C30.7521 41.853 31.0154 41.5593 31.0749 41.1578C31.1343 40.7564 30.9674 40.3993 30.702 40.3602C30.4366 40.3211 30.1732 40.6149 30.1138 41.0163C30.0544 41.4177 30.2213 41.7748 30.4867 41.8139Z" fill="#FF9A51"/>
<path d="M18.4785 33.7353C18.7853 33.703 18.9963 33.3208 18.9498 32.8818C18.9032 32.4428 18.6167 32.1131 18.3099 32.1455C18.0031 32.1779 17.7921 32.56 17.8387 32.999C17.8853 33.438 18.1717 33.7677 18.4785 33.7353Z" fill="#FF9A51"/>
<path d="M26.7806 33.5687C27.0708 33.5528 27.2875 33.2042 27.2647 32.7901C27.2419 32.3761 26.9882 32.0533 26.698 32.0692C26.4078 32.0851 26.1911 32.4336 26.2139 32.8477C26.2367 33.2618 26.4904 33.5846 26.7806 33.5687Z" fill="#FF9A51"/>
<path d="M30.075 24.5229C30.3724 24.4873 30.5738 24.1282 30.5248 23.7209C30.4757 23.3136 30.1949 23.0123 29.8974 23.0479C29.6 23.0835 29.3986 23.4426 29.4477 23.8499C29.4967 24.2572 29.7776 24.5585 30.075 24.5229Z" fill="#FF9A51"/>
<path d="M34.2862 33.1302C34.4904 33.1057 34.6193 32.7808 34.574 32.4045C34.5287 32.0282 34.3264 31.7429 34.1222 31.7674C33.918 31.7918 33.7892 32.1167 33.8345 32.4931C33.8798 32.8694 34.082 33.1546 34.2862 33.1302Z" fill="#FF9A51"/>
</g>
<g>
<path d="M74.8135 47.5444C75.3897 46.9749 100.844 43.6918 102.132 44.0268C103.42 44.3618 121.655 52.871 123.248 54.4456C123.248 54.4456 111.08 54.2781 93.6245 60.3082L74.8135 47.5444Z" fill="#685A5A"/>
<path d="M94.3361 61.4472C94.5937 61.1926 104.877 58.0301 110.944 56.8241C117.011 55.6181 123.336 54.6934 123.925 55.5511C124.379 56.2144 122.725 61.675 121.329 66.9614C119.96 72.1541 118.848 77.1859 118.672 77.3601C118.312 77.7152 91.4212 86.8408 91.184 86.6063C90.9467 86.3718 92.9939 62.7671 94.3361 61.4472Z" fill="#685A5A"/>
<path d="M74.1016 48.2211C74.2846 48.1139 92.7635 60.7705 92.7635 61.3535C92.7635 61.9364 89.6452 81.9297 90.3231 86.6064C90.3231 86.6064 85.8288 81.6014 81.5446 77.0051C77.8367 73.0319 74.2643 69.4071 74.1016 68.9783C73.9389 68.5695 74.0202 64.4623 74.027 60.0134C74.0338 54.4255 73.9999 48.2814 74.1016 48.2211Z" fill="#685A5A"/>
<path d="M79.7346 76.1541C79.3076 76.5025 78.6229 76.7236 77.8434 76.7236C76.5419 76.7236 75.4844 76.1005 75.4844 75.3233C75.4844 74.9682 75.7013 74.6533 76.0673 74.4053L75.9792 72.1943C76.9825 73.2596 78.3043 74.6399 79.7346 76.1541Z" fill="#FF9A51"/>
<path d="M93.8007 89.8358C93.8007 91.0352 92.5128 92 90.9333 92C89.3471 92 88.0659 91.0352 88.0659 89.8358C88.0659 89.1725 88.4523 88.5829 89.076 88.1876L89.0827 86.5394C89.0827 86.5394 90.3029 88.1273 90.5944 88.1876C90.8859 88.2479 92.9534 87.4037 92.9534 87.4037H92.9602C93.0619 87.3702 93.1635 87.3434 93.272 87.3099L93.1568 88.469C93.5567 88.8375 93.8007 89.3132 93.8007 89.8358Z" fill="#FF9A51"/>
<path d="M115.832 82.5594C115.621 83.3969 114.354 83.799 112.998 83.4639C111.642 83.1289 110.714 82.1842 110.924 81.3467C111.012 80.9916 111.297 80.7102 111.696 80.536C113.351 79.9665 114.835 79.4439 116.001 79.0284L115.296 81.2261C115.73 81.6348 115.94 82.1105 115.832 82.5594Z" fill="#FF9A51"/>
</g>
<defs>
<clipPath id="clip0">
<rect width="59" height="77" fill="white" transform="translate(0 15)"/>
</clipPath>
<clipPath id="clip1">
<rect width="50" height="48" fill="white" transform="translate(74 44)"/>
</clipPath>
</defs>
</svg>
