<svg width="45" height="48" viewBox="0 0 45 48" fill="none" xmlns="http://www.w3.org/2000/svg">
<path d="M15.1515 47.0913C17.8901 47.0913 20.1101 44.8712 20.1101 42.1327C20.1101 39.3941 17.8901 37.174 15.1515 37.174C12.4129 37.174 10.1929 39.3941 10.1929 42.1327C10.1929 44.8712 12.4129 47.0913 15.1515 47.0913Z" fill="#605D5D"/>
<path d="M36.0883 47.0913C38.8268 47.0913 41.0469 44.8712 41.0469 42.1327C41.0469 39.3941 38.8268 37.174 36.0883 37.174C33.3497 37.174 31.1296 39.3941 31.1296 42.1327C31.1296 44.8712 33.3497 47.0913 36.0883 47.0913Z" fill="#605D5D"/>
<path d="M11.2397 9.57066L9.5317 4.39163C8.85181 2.34417 6.95051 0.951387 4.79337 0.920593H1.10193C0.493332 0.920593 0 1.41392 0 2.02252C0 2.63112 0.493332 3.12445 1.10193 3.12445H4.79337C5.99148 3.15092 7.04648 3.92023 7.43804 5.05285L14.3802 26.1547L13.8844 27.4219C13.2802 29.0017 13.443 30.7722 14.3252 32.2153C15.2421 33.6151 16.7848 34.479 18.4574 34.5294H39.945C40.5536 34.5294 41.0469 34.036 41.0469 33.4274C41.0469 32.8188 40.5536 32.3255 39.945 32.3255H18.4573C17.5296 32.2934 16.6805 31.7964 16.1984 31.0032C15.6783 30.2202 15.5754 29.2319 15.923 28.3585L16.5841 26.7055C16.6834 26.4415 16.7026 26.154 16.6391 25.8791L16.3085 25.0526L38.7327 22.7385C40.3654 22.5916 41.72 21.4146 42.0936 19.8184L44.4076 10.0664L11.2397 9.57066Z" fill="#605D5D"/>
</svg>
