<svg width="17" height="21" viewBox="0 0 17 21" fill="none" xmlns="http://www.w3.org/2000/svg">
<path d="M15.6462 0H1.84303C1.51819 0 1.25483 0.263358 1.25483 0.588202V3.17629H0.588202C0.263358 3.17629 0 3.43965 0 3.76449C0 4.08934 0.263358 4.35269 0.588202 4.35269H1.25483V6.31337H0.588202C0.263358 6.31337 0 6.57673 0 6.90157C0 7.22641 0.263358 7.48977 0.588202 7.48977H1.25483V9.45045H0.588202C0.263358 9.45045 0 9.7138 0 10.0386C0 10.3635 0.263358 10.6269 0.588202 10.6269H1.25483V12.5875H0.588202C0.263358 12.5875 0 12.8509 0 13.1757C0 13.5006 0.263358 13.7639 0.588202 13.7639H1.25483V15.7246H0.588202C0.263358 15.7246 0 15.988 0 16.3128C0 16.6376 0.263358 16.901 0.588202 16.901H1.25483V19.4891C1.25483 19.8139 1.51819 20.0773 1.84303 20.0773H15.6462C15.971 20.0773 16.2344 19.8139 16.2344 19.4891V0.588202C16.2344 0.263358 15.971 0 15.6462 0ZM11.8817 14.7051C11.5568 14.7051 11.2935 14.4417 11.2935 14.1168C11.2935 12.5555 10.3401 10.9406 8.7446 10.9406C7.14913 10.9406 6.19573 12.5555 6.19573 14.1168C6.19573 14.4417 5.93237 14.7051 5.60753 14.7051C5.28268 14.7051 5.01932 14.4417 5.01932 14.1168C5.01932 12.6224 5.7016 11.074 6.95098 10.2835C6.3458 9.77239 5.96045 9.00871 5.96045 8.1564C5.96045 6.62123 7.20944 5.37224 8.7446 5.37224C10.2798 5.37224 11.5288 6.62123 11.5288 8.1564C11.5288 9.00871 11.1434 9.77239 10.5382 10.2835C11.7876 11.0741 12.4699 12.6222 12.4699 14.1168C12.4699 14.4417 12.2065 14.7051 11.8817 14.7051Z" fill="#E5E5E5"/>
<path d="M8.74471 9.76433C9.63265 9.76433 10.3525 9.04452 10.3525 8.15658C10.3525 7.26864 9.63265 6.54883 8.74471 6.54883C7.85678 6.54883 7.13696 7.26864 7.13696 8.15658C7.13696 9.04452 7.85678 9.76433 8.74471 9.76433Z" fill="#E5E5E5"/>
</svg>
