<svg width="30" height="30" viewBox="0 0 30 30" fill="none" xmlns="http://www.w3.org/2000/svg">
<g clip-path="url(#clip0)">
<path d="M16.191 16.001L22.7534 9.43854C23.0822 9.10966 23.0822 8.57648 22.7534 8.24763C22.4245 7.91876 21.8913 7.91876 21.5624 8.24763L15 14.8101L8.43756 8.24763C8.10869 7.91876 7.5755 7.91876 7.24666 8.24763C6.91781 8.57651 6.91778 9.10969 7.24666 9.43854L13.8091 16.001L7.24666 22.5634C6.91778 22.8923 6.91778 23.4254 7.24666 23.7543C7.57553 24.0832 8.10872 24.0831 8.43756 23.7543L15 17.1919L21.5624 23.7543C21.8913 24.0832 22.4245 24.0831 22.7533 23.7543C23.0822 23.4254 23.0822 22.8922 22.7533 22.5634L16.191 16.001Z" fill="white"/>
</g>
<defs>
<clipPath id="clip0">
<rect width="16" height="16" fill="white" transform="translate(7 8)"/>
</clipPath>
</defs>
</svg>
