<svg width="22" height="15" viewBox="0 0 22 15" fill="none" xmlns="http://www.w3.org/2000/svg">
<path d="M14.7534 7.45571L21.9584 12.0106V2.7085L14.7534 7.45571Z" fill="white"/>
<path d="M0.58667 2.7085V12.0106L7.79165 7.45571L0.58667 2.7085Z" fill="white"/>
<path d="M20.6227 0H1.92238C1.25584 0 0.726889 0.496895 0.626709 1.13671L11.2725 8.15068L21.9184 1.13671C21.8182 0.496895 21.2893 0 20.6227 0Z" fill="white"/>
<path d="M13.53 8.26305L11.6399 9.50796C11.5277 9.58143 11.4008 9.61749 11.2726 9.61749C11.1443 9.61749 11.0174 9.58143 10.9052 9.50796L9.01516 8.26172L0.629395 13.5659C0.732246 14.2004 1.25853 14.6933 1.92239 14.6933H20.6227C21.2866 14.6933 21.8129 14.2004 21.9157 13.5659L13.53 8.26305Z" fill="white"/>
</svg>
