<svg width="22" height="24" viewBox="0 0 22 24" fill="none" xmlns="http://www.w3.org/2000/svg">
<path d="M10.0395 0.38039L9.63844 0L0 6.25622L0.615937 6.87215C0.854203 7.11037 6.49842 12.7031 10.9568 12.7031H11.1697L21.7165 5.67187H19.3943C15.5106 5.67187 10.0937 0.432609 10.0395 0.38039Z" fill="#E5E5E5"/>
<path d="M16.7499 16.2981L11.5954 19.7345H10.9568C7.97128 19.7345 4.70264 17.6975 2.43295 15.939L0 17.5063L0.615937 18.1223C0.854203 18.3605 6.49842 24.0001 10.9568 24.0001H11.1697L21.7165 16.922H19.3943C18.5608 16.922 17.6566 16.6743 16.7499 16.2981Z" fill="#E5E5E5"/>
<path d="M16.7499 10.6731L11.5954 14.1095H10.9568C7.97128 14.1095 4.70264 12.0725 2.43295 10.314L0 11.8813L0.615937 12.4973C0.854203 12.7355 6.49842 18.3282 10.9568 18.3282H11.1697L21.7165 11.297H19.3943C18.5608 11.297 17.6566 11.0493 16.7499 10.6731Z" fill="#E5E5E5"/>
</svg>
