<svg width="24" height="22" viewBox="0 0 24 22" fill="none" xmlns="http://www.w3.org/2000/svg">
<path d="M9.21526 10.2276L18.0729 5.1137L13.9069 2.7085L5.04932 7.82237L9.21526 10.2276Z" fill="#E5E5E5"/>
<path d="M8.87586 10.8457L0 5.73145V15.9608L8.87586 21.0751V10.8457Z" fill="#E5E5E5"/>
<path d="M17.7009 16.0825H16.7317V17.0517H17.7009V16.0825Z" fill="#E5E5E5"/>
<path d="M9.59009 10.8457V21.0751L14.4361 18.2728V10.8885C14.4341 10.4821 14.5937 10.0916 14.8796 9.80289C15.1656 9.51415 15.5545 9.35084 15.9609 9.34887H17.2315C17.3039 9.08686 17.4596 8.85553 17.6751 8.68987C17.8906 8.52421 18.1542 8.43323 18.426 8.43068H18.4149V5.73145L9.59009 10.8457Z" fill="#E5E5E5"/>
<path d="M20.4981 9.14502H18.4231C18.1368 9.14502 17.9048 9.37708 17.9048 9.66334V9.69792C17.9048 9.98418 18.1368 10.2162 18.4231 10.2162H20.4981C20.7844 10.2162 21.0164 9.98418 21.0164 9.69792V9.66334C21.0164 9.37708 20.7844 9.14502 20.4981 9.14502Z" fill="#E5E5E5"/>
<path d="M13.193 2.2964L9.21546 0L0.35791 5.11392L4.33537 7.41032L13.193 2.2964Z" fill="#E5E5E5"/>
<path d="M22.9505 10.0635H21.6659C21.5894 10.3162 21.4329 10.5374 21.2201 10.6937C21.0073 10.85 20.7495 10.9332 20.4854 10.9307H18.4259C18.1619 10.9332 17.9041 10.85 17.6912 10.6937C17.4784 10.5374 17.3219 10.3162 17.2453 10.0635H15.9608C15.8533 10.0643 15.7471 10.0864 15.6482 10.1284C15.5493 10.1704 15.4596 10.2314 15.3843 10.3081C15.309 10.3848 15.2496 10.4755 15.2094 10.5752C15.1692 10.6749 15.1491 10.7815 15.1502 10.8889V21.1982C15.1496 21.3044 15.1702 21.4097 15.2108 21.5078C15.2514 21.606 15.3112 21.695 15.3868 21.7697C15.4623 21.8444 15.552 21.9032 15.6505 21.9428C15.7491 21.9823 15.8546 22.0018 15.9608 22H22.9505C23.0573 22.0019 23.1633 21.9827 23.2625 21.9433C23.3617 21.904 23.4521 21.8453 23.5285 21.7707C23.6048 21.6961 23.6655 21.6071 23.7072 21.5088C23.7488 21.4105 23.7705 21.3049 23.771 21.1982V10.8889C23.7709 10.6709 23.6846 10.4617 23.5309 10.3071C23.3772 10.1524 23.1686 10.0649 22.9505 10.0635ZM16.0174 12.4627C16.017 12.4158 16.026 12.3694 16.0436 12.326C16.0613 12.2826 16.0873 12.2431 16.1202 12.2098C16.1531 12.1765 16.1923 12.15 16.2355 12.1318C16.2787 12.1136 16.325 12.1041 16.3718 12.1039H18.0539C18.1492 12.1041 18.2405 12.1419 18.3081 12.2091C18.3757 12.2763 18.4141 12.3674 18.4149 12.4627V12.7029C18.4144 12.7977 18.3763 12.8885 18.309 12.9553C18.2417 13.0221 18.1507 13.0594 18.0559 13.0592C17.9807 13.0617 17.9068 13.0394 17.8455 12.9959C17.7841 12.9523 17.7388 12.8898 17.7164 12.8181H16.7315V13.7873H16.7456C16.8403 13.7873 16.9311 13.8249 16.9981 13.8918C17.0651 13.9588 17.1027 14.0496 17.1027 14.1443C17.1027 14.239 17.0651 14.3299 16.9981 14.3968C16.9311 14.4638 16.8403 14.5014 16.7456 14.5014H16.3718C16.3251 14.5014 16.2788 14.4922 16.2357 14.4742C16.1925 14.4562 16.1534 14.4299 16.1204 14.3968C16.0875 14.3636 16.0614 14.3243 16.0437 14.2811C16.026 14.2378 16.0171 14.1915 16.0174 14.1447V12.4627ZM16.0174 15.7257C16.0174 15.631 16.055 15.5401 16.122 15.4732C16.1889 15.4062 16.2797 15.3686 16.3744 15.3686H18.0578C18.1525 15.3686 18.2433 15.4062 18.3103 15.4732C18.3773 15.5401 18.4149 15.631 18.4149 15.7257V17.409C18.4149 17.5037 18.3773 17.5945 18.3103 17.6615C18.2433 17.7285 18.1525 17.7661 18.0578 17.7661H16.3744C16.2797 17.7661 16.1889 17.7285 16.122 17.6615C16.055 17.5945 16.0174 17.5037 16.0174 17.409V15.7257ZM16.7456 21.0308H16.3718C16.3258 21.0321 16.2799 21.0242 16.2369 21.0075C16.1939 20.9908 16.1548 20.9656 16.1217 20.9334C16.0886 20.9013 16.0624 20.8629 16.0445 20.8204C16.0265 20.7779 16.0173 20.7323 16.0174 20.6861V19.0041C16.0163 18.9082 16.0528 18.8157 16.119 18.7464C16.1853 18.6771 16.276 18.6365 16.3718 18.6333H18.0539C18.1504 18.6362 18.242 18.6766 18.3093 18.7457C18.3767 18.8149 18.4145 18.9075 18.4149 19.0041V19.3481C18.4128 19.442 18.3741 19.5314 18.3069 19.5971C18.2398 19.6627 18.1496 19.6994 18.0556 19.6993C17.9617 19.6992 17.8716 19.6623 17.8045 19.5966C17.7375 19.5308 17.6989 19.4413 17.6971 19.3474H16.7315V20.3166H16.7456C16.8404 20.3166 16.9312 20.3542 16.9981 20.4212C17.0651 20.4882 17.1027 20.579 17.1027 20.6737C17.1027 20.7684 17.0651 20.8592 16.9981 20.9262C16.9312 20.9932 16.8404 21.0308 16.7456 21.0308ZM19.3811 19.6403L18.0827 20.9386C18.0496 20.9718 18.0102 20.9981 17.9669 21.016C17.9236 21.034 17.8771 21.0432 17.8302 21.0432C17.7833 21.0432 17.7369 21.034 17.6936 21.016C17.6503 20.9981 17.6109 20.9718 17.5777 20.9386L17.007 20.368C16.9738 20.3348 16.9475 20.2955 16.9296 20.2521C16.9116 20.2088 16.9024 20.1624 16.9024 20.1155C16.9024 20.0686 16.9116 20.0222 16.9296 19.9788C16.9475 19.9355 16.9738 19.8961 17.007 19.863C17.0401 19.8298 17.0795 19.8035 17.1228 19.7856C17.1662 19.7676 17.2126 19.7584 17.2595 19.7584C17.3064 19.7584 17.3528 19.7676 17.3961 19.7856C17.4395 19.8035 17.4788 19.8298 17.512 19.863L17.8301 20.1811L18.8758 19.1354C18.9428 19.0685 19.0336 19.0308 19.1283 19.0308C19.223 19.0308 19.3138 19.0685 19.3808 19.1354C19.4478 19.2024 19.4854 19.2932 19.4854 19.3879C19.4854 19.4826 19.4478 19.5735 19.3808 19.6404L19.3811 19.6403ZM19.3811 13.0472L18.0827 14.3455C18.0496 14.3787 18.0102 14.405 17.9669 14.4229C17.9236 14.4409 17.8771 14.4501 17.8302 14.4501C17.7833 14.4501 17.7369 14.4409 17.6936 14.4229C17.6503 14.405 17.6109 14.3787 17.5777 14.3455L17.007 13.7749C16.9738 13.7418 16.9475 13.7024 16.9296 13.6591C16.9116 13.6157 16.9024 13.5693 16.9024 13.5224C16.9024 13.4755 16.9116 13.4291 16.9296 13.3858C16.9475 13.3424 16.9738 13.3031 17.007 13.2699C17.0401 13.2367 17.0795 13.2104 17.1228 13.1925C17.1662 13.1746 17.2126 13.1653 17.2595 13.1653C17.3064 13.1653 17.3528 13.1746 17.3961 13.1925C17.4395 13.2104 17.4788 13.2367 17.512 13.2699L17.8301 13.5881L18.8758 12.5423C18.9428 12.4754 19.0336 12.4378 19.1283 12.4378C19.223 12.4378 19.3138 12.4754 19.3808 12.5423C19.4478 12.6093 19.4854 12.7001 19.4854 12.7948C19.4854 12.8896 19.4478 12.9804 19.3808 13.0473L19.3811 13.0472ZM22.5394 20.2146H20.2967C20.202 20.2146 20.1112 20.177 20.0442 20.11C19.9773 20.0431 19.9396 19.9522 19.9396 19.8575C19.9396 19.7628 19.9773 19.672 20.0442 19.605C20.1112 19.5381 20.202 19.5005 20.2967 19.5005H22.5394C22.6341 19.5005 22.725 19.5381 22.7919 19.605C22.8589 19.672 22.8965 19.7628 22.8965 19.8575C22.8965 19.9522 22.8589 20.0431 22.7919 20.11C22.725 20.177 22.6341 20.2146 22.5394 20.2146ZM22.5394 16.9499H20.2967C20.202 16.9499 20.1112 16.9123 20.0442 16.8453C19.9773 16.7784 19.9396 16.6875 19.9396 16.5928C19.9396 16.4981 19.9773 16.4073 20.0442 16.3404C20.1112 16.2734 20.202 16.2358 20.2967 16.2358H22.5394C22.6341 16.2358 22.725 16.2734 22.7919 16.3404C22.8589 16.4073 22.8965 16.4981 22.8965 16.5928C22.8965 16.6875 22.8589 16.7784 22.7919 16.8453C22.725 16.9123 22.6341 16.9499 22.5394 16.9499ZM22.5394 13.6852H20.2967C20.202 13.6852 20.1112 13.6476 20.0442 13.5807C19.9773 13.5137 19.9396 13.4229 19.9396 13.3282C19.9396 13.2335 19.9773 13.1426 20.0442 13.0757C20.1112 13.0087 20.202 12.9711 20.2967 12.9711H22.5394C22.6341 12.9711 22.725 13.0087 22.7919 13.0757C22.8589 13.1426 22.8965 13.2335 22.8965 13.3282C22.8965 13.4229 22.8589 13.5137 22.7919 13.5807C22.725 13.6476 22.6341 13.6852 22.5394 13.6852Z" fill="#E5E5E5"/>
</svg>
