<svg width="17" height="27" viewBox="0 0 17 27" fill="none" xmlns="http://www.w3.org/2000/svg">
<path d="M8.23913 0H8.20181C3.68733 0 0.0146484 3.71362 0.0146484 8.27822C0.0146484 11.2703 1.36182 15.2191 4.01872 20.0152C5.98854 23.5708 7.98598 26.2941 8.00598 26.3211C8.06158 26.3967 8.14922 26.4412 8.24207 26.4412C8.24471 26.4412 8.24741 26.4412 8.25005 26.4411C8.34585 26.4384 8.43428 26.3888 8.48742 26.308C8.50712 26.2779 10.4903 23.2486 12.4468 19.5435C15.0875 14.5426 16.4264 10.7524 16.4264 8.27822C16.4262 3.71356 12.7535 0 8.23913 0ZM12.0182 8.48051C12.0182 10.5987 10.3146 12.3219 8.22041 12.3219C6.12632 12.3219 4.42265 10.5987 4.42265 8.48051C4.42265 6.36237 6.12632 4.63914 8.22041 4.63914C10.3146 4.63914 12.0182 6.36237 12.0182 8.48051Z" fill="#FFC50C"/>
</svg>
