<svg width="74" height="83" viewBox="0 0 74 83" fill="none" xmlns="http://www.w3.org/2000/svg">
<circle cx="36.7766" cy="37.3205" r="36.7766" fill="#D8ECFE"/>
<path d="M73.5532 37.3206C73.5532 57.6317 57.0877 74.0972 36.7766 74.0972C16.4654 74.0972 0 57.6317 0 37.3206C0 26.4761 29.7042 22.7042 38.6626 37.3206C60.3513 56.6519 73.5532 33.0771 73.5532 37.3206Z" fill="#B5ADD5"/>
<path d="M28.439 68.2634C27.9003 70.3469 26.7868 72.3224 25.1703 73.9389C21.4345 77.6389 7.61367 82.0486 6.0691 82.5155C5.45831 82.6951 4.77593 82.5155 4.30904 82.0485C3.84215 81.5815 3.66221 80.899 3.84203 80.2524C4.30904 78.7439 8.75444 64.9586 12.4541 61.223C14.0705 59.6066 16.0462 58.493 18.1297 57.954L23.2664 63.0909L28.439 68.2634Z" fill="#FFE470"/>
<path d="M23.2665 63.0911L28.4391 68.2634C27.9004 70.3469 26.7869 72.3225 25.1704 73.939C21.4345 77.6389 7.61371 82.0486 6.06914 82.5155C5.45835 82.6951 4.77597 82.5155 4.30908 82.0485L23.2665 63.0911Z" fill="#FFC50C"/>
<path d="M23.8772 65.0306L18.8123 70.1312C18.4531 70.4545 17.9863 70.6341 17.5552 70.6341C17.0882 70.6341 16.6213 70.4545 16.2619 70.1312V70.0952C15.5794 69.377 15.5794 68.2632 16.2619 67.5809L21.3627 62.5159C22.0452 61.7975 23.1588 61.7975 23.8413 62.5159H23.8772C24.5954 63.1987 24.5954 64.3481 23.8772 65.0306Z" fill="#FFC50C"/>
<path d="M23.8773 62.5162C24.5956 63.1987 24.5956 64.3482 23.8773 65.0307L18.8124 70.1313C18.4532 70.4546 17.9863 70.6342 17.5553 70.6342C17.0882 70.6342 16.6213 70.4546 16.262 70.1313V70.0954L23.8414 62.5161L23.8773 62.5162Z" fill="#FDBF00"/>
<path d="M24.6568 38.9535C11.9008 38.9535 7.87529 49.7378 7.55229 50.0981C7.27168 50.6542 7.29802 51.3172 7.62592 51.8485C7.95214 52.3799 8.53097 52.7043 9.15529 52.7043C16.5271 53.3562 21.1269 53.7628 20.7593 53.7303L26.8684 38.9533H24.6568V38.9535Z" fill="#FE646F"/>
<path d="M32.625 65.5751C32.6529 65.9429 33.5533 77.8131 33.495 77.0441C33.495 78.3815 34.9077 79.248 36.1014 78.6472C36.461 78.3249 47.246 74.2225 47.246 61.5427V59.3309L32.625 65.5751Z" fill="#FF302C"/>
<path d="M34.0786 67.6168C32.1749 68.5867 30.2711 69.5207 28.475 70.4187C27.7925 70.7779 26.9665 70.6342 26.3915 70.0954L16.2618 59.9657C15.7231 59.3911 15.5793 58.5649 15.9387 57.8824C16.8367 56.0863 17.7707 54.1825 18.7404 52.2788C19.3153 51.1652 23.482 53.6438 24.0569 52.4943L33.8631 62.3006C32.7136 62.8752 35.1922 67.0421 34.0786 67.6168Z" fill="#FF9A51"/>
<path d="M34.0788 67.6167C32.1751 68.5867 30.2712 69.5207 28.4751 70.4187C27.7926 70.7778 26.9666 70.6342 26.3916 70.0953L21.3269 65.0306L28.9781 57.4154L33.8633 62.3006C32.7138 62.8752 35.1924 67.0421 34.0788 67.6167Z" fill="#FF7816"/>
<path d="M63.5696 39.1317C61.9532 45.3102 59.0436 50.339 54.5174 54.6855C49.2371 59.7861 40.7956 64.2404 34.0784 67.6169L26.4273 59.9657L18.7402 52.2788C22.1168 45.5615 26.5712 37.0841 31.6718 31.8398C36.0181 27.3139 41.0471 24.4042 47.2256 22.7877L50.8534 24.1167C50.9253 27.2418 52.1824 30.0797 54.2299 32.1269C56.2774 34.1744 59.1153 35.4318 62.2404 35.5035L63.5696 39.1317Z" fill="#FEFEFF"/>
<path d="M63.5695 39.1317C61.9531 45.3102 59.0435 50.339 54.5173 54.6855C49.237 59.7861 40.7955 64.2404 34.0784 67.6168L26.4272 59.9657L54.2299 32.127C56.2774 34.1745 59.1153 35.4319 62.2403 35.5036L63.5695 39.1317Z" fill="#D7D7EE"/>
<path d="M49.2732 37.0842C45.789 33.6 40.0775 33.6 36.5933 37.0842C33.1089 40.6045 33.1089 46.2441 36.5933 49.7643V49.8002C40.0775 53.2845 45.789 53.2845 49.2732 49.8002C52.7936 46.2799 52.7936 40.6046 49.2732 37.0842Z" fill="#B5ADD5"/>
<path d="M63.5698 39.1318C63.2823 39.1318 62.4562 39.0958 62.1689 39.0958C58.0378 39.0241 54.3742 37.3718 51.6801 34.6777C48.986 31.9837 47.3336 28.3196 47.2617 24.189C47.2617 23.9015 47.2261 23.0754 47.2261 22.7881C52.3267 21.4589 58.038 21.1355 63.2826 21.351C63.7496 21.351 64.1806 21.5307 64.504 21.8539C64.8272 22.1773 65.0069 22.6084 65.0069 23.0754C65.222 28.3194 64.863 34.0309 63.5698 39.1318Z" fill="#FF9A51"/>
<path d="M34.0068 54.8651C33.3243 55.5835 32.175 55.5835 31.4924 54.8651C30.774 54.1826 30.774 53.033 31.4924 52.3505C32.1749 51.6323 33.3242 51.6323 34.0068 52.3505C34.7254 53.0329 34.7254 54.1826 34.0068 54.8651Z" fill="#5A5A5A"/>
<path d="M63.5696 39.1317C63.2822 39.1317 62.456 39.0958 62.1687 39.0958C58.0377 39.0241 54.374 37.3718 51.6799 34.6777L64.5036 21.8539C64.8267 22.1772 65.0064 22.6083 65.0064 23.0753C65.2218 28.3194 64.8628 34.0309 63.5696 39.1317Z" fill="#FF7816"/>
<path d="M49.2732 49.8002C45.789 53.2845 40.0775 53.2845 36.5933 49.8002V49.7643L49.2732 37.0842C52.7935 40.6046 52.7935 46.2799 49.2732 49.8002Z" fill="#8B66A9"/>
<path d="M34.0066 54.865C33.3241 55.5834 32.1748 55.5834 31.4922 54.865L34.0066 52.3505C34.7251 53.0329 34.7251 54.1825 34.0066 54.865Z" fill="#685A5A"/>
</svg>
