<svg width="106" height="99" viewBox="0 0 106 99" fill="none" xmlns="http://www.w3.org/2000/svg">
<path d="M92.2567 52.656C92.2567 77.8916 71.6044 98.3492 46.1284 98.3492C20.6524 98.3492 0 77.8916 0 52.656C0 27.4203 20.6524 6.96277 46.1284 6.96277C71.6044 6.96277 92.2567 27.4203 92.2567 52.656Z" fill="#F5F5F5"/>
<path d="M93.9569 0.556947L93.9571 0.556913C94.7565 0.437158 95.5728 0.506988 96.3402 0.760769C97.1076 1.01455 97.8045 1.44517 98.3749 2.01789C98.9452 2.59061 99.3729 3.28938 99.6235 4.05782C99.8741 4.82625 99.9405 5.64283 99.8174 6.44166L99.8174 6.44179L98.1756 17.1139L98.1756 17.114L96.4787 28.1241L96.4787 28.1242C96.1289 30.3971 95.0637 32.4992 93.4376 34.1253L51.0598 76.5031C50.5809 76.982 50.0125 77.3618 49.3869 77.621C48.7612 77.8801 48.0907 78.0135 47.4135 78.0135C46.7364 78.0135 46.0658 77.8801 45.4402 77.621C44.8146 77.3618 44.2461 76.982 43.7673 76.5031L23.769 56.5049L23.4167 56.8572L23.769 56.5049C23.2902 56.0261 22.9104 55.4576 22.6512 54.832C22.3921 54.2064 22.2587 53.5358 22.2587 52.8587C22.2587 52.1815 22.3921 51.5109 22.6512 50.8853C22.9104 50.2597 23.2902 49.6912 23.769 49.2124L66.1285 6.85866L66.1285 6.85861C67.7668 5.22013 69.888 4.15123 72.1797 3.8094L72.1797 3.80938L93.9569 0.556947ZM89.7751 15.6187C90.9079 15.5216 91.9689 15.0234 92.7671 14.2137C93.4741 13.4994 93.936 12.579 94.086 11.5853C94.2581 10.4614 94.0234 9.31298 93.4241 8.34674C92.8249 7.38051 91.9004 6.65991 90.8171 6.31465C89.7338 5.9694 88.5628 6.02217 87.5149 6.46346C86.4671 6.90475 85.6111 7.70557 85.1012 8.72179C84.5913 9.73801 84.4608 10.9029 84.7333 12.0067C85.0058 13.1106 85.6634 14.0809 86.5877 14.7431C87.5119 15.4052 88.6422 15.7157 89.7751 15.6187Z" fill="#FF9A51" stroke="black"/>
<path d="M50.4121 53.8592C50.0181 53.4652 49.5504 53.1526 49.0357 52.9394C48.5209 52.7261 47.9692 52.6164 47.4121 52.6164C46.8549 52.6164 46.3032 52.7261 45.7884 52.9394C45.2737 53.1526 44.806 53.4652 44.4121 53.8592L42.4125 55.8587C42.2812 55.9902 42.1252 56.0945 41.9536 56.1657C41.7819 56.2368 41.5979 56.2735 41.412 56.2735C41.2262 56.2735 41.0422 56.2368 40.8705 56.1657C40.6988 56.0945 40.5429 55.9902 40.4116 55.8587L38.412 53.8592C38.2805 53.7278 38.1762 53.5719 38.1051 53.4002C38.0339 53.2285 37.9973 53.0445 37.9973 52.8587C37.9973 52.6729 38.0339 52.4889 38.1051 52.3172C38.1762 52.1455 38.2805 51.9896 38.412 51.8582L42.4111 47.8591C42.6687 47.5924 42.8112 47.2352 42.808 46.8645C42.8048 46.4937 42.6561 46.139 42.3939 45.8768C42.1317 45.6146 41.777 45.4659 41.4062 45.4627C41.0355 45.4595 40.6783 45.602 40.4116 45.8596L36.4125 49.8601C36.0185 50.254 35.7059 50.7217 35.4927 51.2365C35.2794 51.7512 35.1697 52.3029 35.1697 52.8601C35.1697 53.4173 35.2794 53.969 35.4927 54.4837C35.7059 54.9985 36.0185 55.4662 36.4125 55.8601L38.412 57.8597C38.806 58.2537 39.2737 58.5662 39.7884 58.7795C40.3032 58.9927 40.8549 59.1025 41.412 59.1025C41.9692 59.1025 42.5209 58.9927 43.0357 58.7795C43.5504 58.5662 44.0181 58.2537 44.4121 57.8597L46.4116 55.8601C46.5429 55.7287 46.6989 55.6244 46.8706 55.5532C47.0422 55.482 47.2262 55.4454 47.4121 55.4454C47.5979 55.4454 47.7819 55.482 47.9536 55.5532C48.1253 55.6244 48.2812 55.7287 48.4125 55.8601L50.4121 57.8583C50.5436 57.9896 50.6479 58.1455 50.719 58.3172C50.7902 58.4889 50.8268 58.6729 50.8268 58.8587C50.8268 59.0446 50.7902 59.2286 50.719 59.4003C50.6479 59.5719 50.5436 59.7279 50.4121 59.8592L46.413 63.8597C46.2779 63.9902 46.1702 64.1462 46.0961 64.3187C46.022 64.4912 45.983 64.6768 45.9814 64.8646C45.9797 65.0523 46.0155 65.2385 46.0866 65.4123C46.1577 65.5861 46.2627 65.744 46.3955 65.8768C46.5283 66.0096 46.6861 66.1145 46.8599 66.1857C47.0337 66.2568 47.2199 66.2925 47.4077 66.2909C47.5955 66.2893 47.781 66.2503 47.9535 66.1762C48.1261 66.102 48.2821 65.9943 48.4125 65.8592L52.413 61.8602C52.8071 61.4662 53.1196 60.9985 53.3328 60.4838C53.5461 59.969 53.6558 59.4173 53.6558 58.8602C53.6558 58.303 53.5461 57.7513 53.3328 57.2365C53.1196 56.7218 52.8071 56.2541 52.413 55.8601L50.4121 53.8592Z" fill="#685A5A"/>
<path d="M66.554 45.2332L51.5547 36.2338C51.2844 36.0717 50.9677 36.0045 50.6549 36.043C50.3421 36.0814 50.0511 36.2232 49.8281 36.4459L47.8271 38.4469C47.6044 38.6699 47.4626 38.9609 47.4241 39.2737C47.3857 39.5865 47.4529 39.9032 47.615 40.1735L56.6143 55.1729C56.71 55.3321 56.836 55.471 56.9853 55.5815C57.1346 55.692 57.3042 55.7721 57.4844 55.817C57.6647 55.862 57.852 55.871 58.0357 55.8436C58.2194 55.8162 58.3959 55.7529 58.5552 55.6572C58.7144 55.5616 58.8533 55.4355 58.9638 55.2862C59.0743 55.1369 59.1543 54.9673 59.1993 54.7871C59.2443 54.6069 59.2533 54.4196 59.2259 54.2359C59.1985 54.0521 59.1351 53.8756 59.0395 53.7164L56.6073 49.6636L61.0447 45.2261L65.0975 47.6584C65.2568 47.754 65.4333 47.8173 65.617 47.8447C65.8007 47.8722 65.988 47.8631 66.1683 47.8182C66.3485 47.7732 66.5181 47.6931 66.6674 47.5826C66.8167 47.4721 66.9427 47.3333 67.0384 47.174C67.134 47.0148 67.1973 46.8383 67.2248 46.6546C67.2522 46.4708 67.2432 46.2835 67.1982 46.1033C67.1532 45.9231 67.0732 45.7535 66.9626 45.6042C66.8521 45.4549 66.7133 45.3288 66.554 45.2332ZM55.1069 47.1648L50.6072 39.6701L51.0456 39.2317L58.5403 43.7314L55.1069 47.1648Z" fill="#685A5A"/>
<path d="M75.2395 35.0318L70.2392 40.0321L59.2403 29.0332C59.1099 28.8982 58.9538 28.7904 58.7813 28.7163C58.6088 28.6422 58.4232 28.6032 58.2355 28.6016C58.0477 28.5999 57.8615 28.6357 57.6877 28.7068C57.5139 28.7779 57.356 28.8829 57.2233 29.0157C57.0905 29.1485 56.9855 29.3063 56.9144 29.4801C56.8433 29.6539 56.8075 29.8401 56.8091 30.0279C56.8108 30.2157 56.8498 30.4012 56.9239 30.5737C56.998 30.7463 57.1057 30.9023 57.2408 31.0328L69.2395 43.0314C69.5046 43.2965 69.8642 43.4454 70.2392 43.4454C70.6142 43.4454 70.9738 43.2965 71.239 43.0314L77.239 37.0314C77.4966 36.7647 77.6391 36.4075 77.6359 36.0367C77.6327 35.6659 77.484 35.3112 77.2218 35.0491C76.9596 34.7869 76.6049 34.6382 76.2342 34.6349C75.8634 34.6317 75.5062 34.7742 75.2395 35.0318Z" fill="#685A5A"/>
<path d="M84.6532 25.6181L80.6527 29.6186L76.6536 25.6181L78.6532 23.6186C78.9107 23.3519 79.0533 22.9947 79.0501 22.6239C79.0468 22.2531 78.8981 21.8984 78.6359 21.6363C78.3737 21.3741 78.0191 21.2254 77.6483 21.2221C77.2775 21.2189 76.9203 21.3614 76.6536 21.619L74.6541 23.6186L70.6536 19.6195L74.6541 15.619C74.7891 15.4885 74.8969 15.3325 74.971 15.16C75.0451 14.9875 75.0841 14.8019 75.0857 14.6141C75.0874 14.4264 75.0516 14.2402 74.9805 14.0664C74.9094 13.8926 74.8044 13.7347 74.6716 13.6019C74.5388 13.4692 74.3809 13.3642 74.2071 13.293C74.0334 13.2219 73.8472 13.1862 73.6594 13.1878C73.4716 13.1894 73.2861 13.2284 73.1135 13.3026C72.941 13.3767 72.785 13.4844 72.6545 13.6195L67.6543 18.6197C67.3892 18.8849 67.2402 19.2445 67.2402 19.6195C67.2402 19.9945 67.3892 20.3541 67.6543 20.6193L79.6529 32.6179C79.9181 32.883 80.2777 33.0319 80.6527 33.0319C81.0277 33.0319 81.3873 32.883 81.6525 32.6179L86.6527 27.6177C86.7878 27.4872 86.8955 27.3312 86.9696 27.1586C87.0438 26.9861 87.0828 26.8006 87.0844 26.6128C87.086 26.425 87.0502 26.2388 86.9791 26.065C86.908 25.8912 86.803 25.7334 86.6703 25.6006C86.5375 25.4678 86.3796 25.3628 86.2058 25.2917C86.032 25.2206 85.8458 25.1848 85.6581 25.1865C85.4703 25.1881 85.2847 25.2271 85.1122 25.3012C84.9397 25.3753 84.7836 25.4831 84.6532 25.6181Z" fill="#685A5A"/>
<path d="M99.8915 16.4873C99.6087 15.9796 99.3019 15.5087 98.9964 15.0492C98.0807 13.6317 96.9571 12.3598 95.6634 11.2763C94.0566 9.86156 92.0055 9.05362 89.8655 8.99255C89.4905 8.99255 89.1308 9.14154 88.8656 9.40674C88.6004 9.67193 88.4514 10.0316 88.4514 10.4067C88.4514 10.7817 88.6004 11.1414 88.8656 11.4066C89.1308 11.6718 89.4905 11.8208 89.8655 11.8208C90.8946 11.8985 91.8959 12.1917 92.8043 12.6813C93.7128 13.171 94.5081 13.8462 95.1387 14.6631C96.02 15.649 96.7901 16.7288 97.4352 17.883C97.7393 18.4147 98.0193 18.9959 98.2993 19.5799C101.037 25.2349 102.592 33.0818 102.592 41.5169C102.592 57.6136 96.7635 71.2131 89.8655 71.2131C84.6489 71.2131 79.7335 63.1216 77.9136 51.5358C77.8952 51.4185 77.8471 51.0098 77.7806 50.4894L75.3003 52.9711C77.5303 65.7999 83.1882 74.0413 89.8655 74.0413C98.5877 74.0413 105.421 59.7588 105.421 41.5169C105.421 31.7384 103.404 22.6118 99.8915 16.4873Z" fill="#685A5A"/>
</svg>
