<svg width="21" height="20" viewBox="0 0 21 20" fill="none" xmlns="http://www.w3.org/2000/svg">
<path d="M20.2567 11.6696C20.2499 11.7049 20.2384 11.6378 20.2567 11.6696C20.365 11.1062 20.4219 10.5298 20.4219 9.95344C20.4219 8.67546 20.1599 7.43577 19.6421 6.26853C19.1425 5.14118 18.4278 4.12873 17.5166 3.25945C16.6068 2.39004 15.5456 1.70785 14.3652 1.231C13.1431 0.737251 11.8444 0.487014 10.5059 0.487014C9.87502 0.487014 9.24313 0.543547 8.62815 0.656368C8.62687 0.656612 8.62354 0.656979 8.62354 0.656979C7.77977 0.228701 6.83102 0 5.87049 0C4.30241 0 2.82816 0.582948 1.71945 1.64178C0.610876 2.70024 0 4.1078 0 5.6047C0 6.55756 0.25686 7.49426 0.738538 8.32182C0.640869 8.85815 0.589215 9.40622 0.589215 9.95344C0.589215 11.2317 0.851331 12.4712 1.36915 13.6386C1.86801 14.7664 2.58296 15.7782 3.49338 16.6476C4.40457 17.5168 5.46431 18.2001 6.64594 18.6758C7.86821 19.1705 9.16725 19.4208 10.5058 19.4208C11.0884 19.4208 11.6724 19.3701 12.2425 19.2735C13.1208 19.7479 14.1151 20 15.1305 20C16.6982 20 18.1718 19.4182 19.2807 18.3588C20.3896 17.301 21 15.8932 21 14.3963C21 13.4402 20.7419 12.5005 20.2567 11.6696ZM10.5454 15.7512C7.02252 15.7512 5.44636 14.0978 5.44636 12.8585C5.44636 12.2231 5.93791 11.7774 6.61531 11.7774C8.12302 11.7774 7.7326 13.844 10.5454 13.844C11.9854 13.844 12.7805 13.0976 12.7805 12.3338C12.7805 11.8743 12.5431 11.365 11.5949 11.142L8.46152 10.3952C5.93791 9.79106 5.48007 8.48861 5.48007 7.26434C5.48007 4.72245 7.98702 3.76812 10.3412 3.76812C12.5099 3.76812 15.0663 4.91236 15.0663 6.43727C15.0663 7.0907 14.4736 7.47065 13.7965 7.47065C12.5099 7.47065 12.7465 5.7705 10.1548 5.7705C8.86886 5.7705 8.15647 6.32653 8.15647 7.12203C8.15647 7.91618 9.17225 8.16984 10.0541 8.36159L12.3734 8.85313C14.9139 9.3935 15.558 10.8095 15.558 12.1433C15.5583 14.2088 13.8974 15.7512 10.5454 15.7512Z" fill="white"/>
</svg>
