<svg width="149" height="92" viewBox="0 0 149 92" fill="none" xmlns="http://www.w3.org/2000/svg">
<path d="M137.769 45.6932C137.769 70.9288 117.117 91.3864 91.6408 91.3864C66.1648 91.3864 45.5125 70.9288 45.5125 45.6932C45.5125 20.4575 66.1648 0 91.6408 0C117.117 0 137.769 20.4575 137.769 45.6932Z" fill="#F5F5F5"/>
<path d="M9.22518 22.0749C10.4405 20.1727 61.9243 21.3382 69.8568 21.5141C73.7458 21.6021 73.4474 23.8781 73.6795 25.5053C73.9888 27.6824 75.635 38.0728 75.635 40.4368C75.635 42.8007 22.4607 46.792 22.4607 46.792L10.4957 34.4334C10.4957 34.4334 8.27505 23.5592 9.22518 22.0749Z" fill="#685A5A"/>
<path d="M22.7371 47.5066C22.7371 47.5066 65.7913 44.7359 75.9002 41.8221C75.9002 41.8221 92.3066 47.0998 94.24 48.4742C94.24 48.4742 25.6096 60.9317 24.7809 61.4705C24.7809 61.4705 24.107 58.6997 24.1181 58.4248C24.2175 56.6546 23.7314 49.9476 23.422 48.947C23.2453 48.4082 23.179 47.7705 22.7371 47.5066Z" fill="#685A5A"/>
<path d="M75.3257 31.2338L76.5078 40.8875C76.5078 40.8875 94.3062 46.506 95.3558 47.5506C95.3558 47.5506 95.853 40.8655 96.5932 40.1398C97.3776 39.3592 101.289 38.8424 102.294 38.9304C102.438 38.9414 100.449 37.8638 97.8747 37.1382C95.3005 36.4125 75.9554 31.2338 75.3257 31.2338Z" fill="#685A5A"/>
<path d="M97.3113 40.9865C97.8637 40.1509 101.907 39.6561 102.294 40.03C102.813 40.5467 98.4161 64.2963 97.6869 64.6261C96.9467 64.956 92.6821 66.0885 92.6821 66.0885C92.6821 66.0885 94.3062 58.9087 94.4167 58.7987C94.5272 58.6888 95.1569 58.4469 95.2674 58.172C95.5215 57.4793 97.5212 51.9377 96.5379 49.4088C96.096 48.3313 96.792 41.7672 97.3113 40.9865Z" fill="#685A5A"/>
<path d="M24.8691 62.757C24.8691 62.757 43.3194 59.2275 61.2945 55.7421C77.8114 52.5315 93.9194 49.3209 94.9358 49.9586C96.7588 51.1131 94.8143 57.3584 94.2398 57.9411C93.6653 58.5238 25.3332 74.5108 25.0791 74.159C24.8139 73.7961 25.2006 65.3188 24.8691 62.757Z" fill="#685A5A"/>
<path d="M24.9688 75.3574V85.1431C24.9688 85.1431 88.948 67.254 91.7652 66.2314L93.555 59.1066C93.555 59.1066 27.2888 75.3574 24.9688 75.3574Z" fill="#685A5A"/>
<path d="M0.939084 35.4229C0.939084 35.4229 8.09822 34.8402 8.61747 34.8402C9.13673 34.8402 9.60075 34.7962 10.2194 35.4229C10.8381 36.0387 21.853 47.1548 21.9967 47.5616C21.9967 47.5616 7.85516 46.8799 7.15913 48.969C6.26424 51.6408 11.1143 85.143 11.1143 85.143L3.45804 62.0532C3.45804 62.0532 0 37.2591 0 36.9073C0 36.5554 0.0441921 35.4889 0.939084 35.4229Z" fill="#685A5A"/>
<path d="M8.81639 49.134C9.67814 48.6612 22.074 47.5617 22.5933 48.6612C23.5987 50.8492 24.0075 85.396 24.0075 85.396C24.0075 85.396 13.6444 88.6836 13.1141 88.6836C12.5838 88.6836 11.9209 88.4857 11.7883 86.5395C11.6557 84.5934 7.86626 52.7404 7.95465 50.7613C7.9657 50.3435 7.95465 49.6178 8.81639 49.134Z" fill="#685A5A"/>
<path d="M22.1158 90.9641C20.5581 91.173 19.155 90.4473 19.0113 89.3588C18.934 88.7541 19.2102 88.1714 19.7626 87.7206L20.81 87.3179L23.4084 87.2258C24.0713 87.5116 24.5685 87.9954 24.6569 88.6002C24.7895 89.6997 23.6736 90.7552 22.1158 90.9641Z" fill="white"/>
<path d="M23.245 90.7066C21.6872 90.9155 20.2841 90.1898 20.1405 89.1013C20.0631 88.4966 20.3393 87.9138 20.8917 87.463V87.2761L24.5376 86.1546V86.9682C25.2005 87.2541 25.6976 87.7379 25.786 88.3426C25.9186 89.4422 24.8028 90.4977 23.245 90.7066Z" fill="#FF9A51"/>
<path d="M91.8201 69.431C91.787 69.9588 90.8147 70.3216 89.6436 70.2336C88.4726 70.1457 87.5666 69.6729 87.5998 69.1451C87.6219 68.8482 87.9423 68.6063 88.4173 68.4634L88.5278 67.9906L91.4776 67.133L91.2346 68.7163C91.6213 68.9142 91.8422 69.1671 91.8201 69.431Z" fill="#FF9A51"/>
<g>
<path d="M126.938 64.7368L132.892 65.2482L132.722 67.2331L126.767 66.7216L126.938 64.7368Z" fill="#685A5A"/>
<path d="M140.289 67.883L134.707 67.4036L134.621 68.396C134.574 68.9444 134.092 69.3503 133.544 69.3032L125.604 68.6213C125.056 68.5742 124.65 68.092 124.697 67.5436L124.782 66.5512L119.199 66.0717C117.916 65.9614 116.852 65.046 116.55 63.7938L113.901 52.7803L112.04 74.4545C111.899 76.0962 113.119 77.5466 114.761 77.6876L142.682 80.0857C144.323 80.2267 145.774 79.0057 145.915 77.3641L147.776 55.6906L143.288 66.0903C142.778 67.2727 141.572 67.9933 140.289 67.883Z" fill="#FF9A51"/>
<path d="M135.248 49.4544L127.309 48.7724C125.667 48.6314 124.217 49.8524 124.076 51.494L123.99 52.4865L115.707 51.7751L118.486 63.3274C118.587 63.7451 118.942 64.05 119.37 64.0867L124.952 64.5662L125.038 63.5738C125.085 63.0254 125.567 62.6195 126.115 62.6666L134.055 63.3485C134.603 63.3956 135.009 63.8778 134.962 64.4262L134.877 65.4186L140.46 65.8981C140.887 65.9348 141.289 65.695 141.46 65.3006L146.168 54.3913L137.885 53.6798L137.97 52.6874C138.111 51.0457 136.89 49.5954 135.248 49.4544ZM125.975 52.657L126.06 51.6645C126.108 51.1169 126.591 50.7103 127.138 50.7573L135.078 51.4392C135.625 51.4863 136.032 51.9693 135.985 52.5169L135.9 53.5094L125.975 52.657Z" fill="#FF9A51"/>
</g>
<defs>
<clipPath id="clip0">
<rect width="34" height="34" fill="white" transform="translate(114.517 45.6076) rotate(4.90904)"/>
</clipPath>
</defs>
</svg>
