<svg width="143" height="102" viewBox="0 0 143 102" fill="none" xmlns="http://www.w3.org/2000/svg">
<path d="M116.257 45.6932C116.257 70.9288 95.6044 91.3864 70.1284 91.3864C44.6524 91.3864 24 70.9288 24 45.6932C24 20.4575 44.6524 0 70.1284 0C95.6044 0 116.257 20.4575 116.257 45.6932Z" fill="#F5F5F5"/>
<g>
<path d="M2.22534 19.0027C5.61089 18.8714 26.1136 18 32.2573 18C41.4077 18 55.8733 18 57.5897 18C59.3062 18 59.4837 18.1671 60.0164 19.3011C60.5491 20.4351 62.9758 29.5669 62.9758 34.5804C62.9758 39.5939 63.0468 43.4137 62.3839 47.711C62.3839 47.711 47.5751 50.5997 41.0408 52.0799C31.2274 54.324 12.3701 58.6213 8.81887 61.3668C8.81887 61.3668 9.6475 48.7733 7.39836 37.9108C5.14922 27.0482 2.67517 19.4563 2.22534 19.0027Z" fill="#685A5A"/>
<path d="M-5.15608e-05 20.7217C-5.15608e-05 20.7217 -0.0237267 19.7309 0.141999 19.5757C0.390588 19.325 1.08901 18.8356 1.44413 19.1937C1.79926 19.5518 5.38605 32.3721 6.35673 37.8511C7.32741 43.3063 7.8601 47.4006 7.8601 51.8531C7.8601 57.9409 7.59967 63.038 7.59967 63.038V79.1528V80.7046C7.59967 80.7046 3.16058 77.792 2.82913 77.1832C2.60422 76.7774 -5.15608e-05 20.7217 -5.15608e-05 20.7217Z" fill="#685A5A"/>
<path d="M9.20947 62.5963C9.20947 62.5963 10.4051 61.51 13.1869 60.3999C16.4659 59.0868 34.459 54.6224 40.4252 53.1542C44.9945 52.0202 61.9577 48.5227 62.5496 48.4272C63.1415 48.3317 67.9357 47.6513 73.9373 48.9285C79.939 50.2058 84.2715 52.5931 85.1475 53.8226C86.0117 55.0521 85.5381 54.8731 85.5381 54.8731L31.9376 73.5902C31.9376 73.5902 27.83 68.1947 22.5031 65.115C17.2235 62.0472 12.7016 61.7846 9.20947 62.5963Z" fill="#685A5A"/>
<path d="M8.66501 63.5394C8.66501 63.5394 14.4654 62.1666 20.834 65.3538C26.9304 68.3977 31.3695 74.6407 31.3695 74.6407C31.3695 74.6407 31.4523 84.0469 28.2325 96.5807L8.54663 81.2895L8.66501 63.5394Z" fill="#685A5A"/>
<path d="M32.5296 74.7242C32.5296 74.7242 32.139 88.6665 29.1677 96.4494C29.1677 96.4494 77.252 73.3276 80.8624 71.358C80.8624 71.358 82.8867 67.0249 85.2897 60.3761C85.7513 59.0869 86.1893 57.4157 85.9171 55.5058C85.9171 55.5058 33.8554 74.4019 32.5296 74.7242Z" fill="#685A5A"/>
<path d="M29.5116 99.923C29.5116 101.069 28.3278 102 26.86 102C25.404 102 24.2202 101.069 24.2202 99.923C24.2202 99.4097 24.3859 98.9322 24.8594 98.5741V95.7928L27.6176 97.846L28.7658 97.285V98.4667C29.2393 98.8367 29.5116 99.35 29.5116 99.923Z" fill="white"/>
<path d="M30.4816 99.923C30.4816 101.069 29.2978 102 27.83 102C26.3739 102 25.1902 101.069 25.1902 99.923C25.1902 99.4097 25.3559 98.9322 25.8294 98.5741V95.7928L28.5876 97.846L29.7358 97.285V98.4667C30.2093 98.8367 30.4816 99.35 30.4816 99.923Z" fill="#FF9A51"/>
<path d="M8.09746 83.1515C8.09746 83.9991 7.03207 84.6795 5.72994 84.6795C4.42781 84.6795 3.35059 83.9871 3.35059 83.1515C3.35059 82.7337 3.55182 82.3518 4.02533 82.0653V79.8928L7.22147 81.9578V81.9459C7.69498 82.2443 8.09746 82.6741 8.09746 83.1515Z" fill="white"/>
<path d="M9.06743 83.1515C9.06743 83.9991 8.00204 84.6795 6.69991 84.6795C5.39778 84.6795 4.32056 83.9871 4.32056 83.1515C4.32056 82.7337 4.5218 82.3518 4.9953 82.0653V79.8928L8.19145 81.9578V81.9459C8.66495 82.2443 9.06743 82.6741 9.06743 83.1515Z" fill="#FF9A51"/>
<path d="M78.2464 76.2998C78.1399 76.837 77.1692 77.0996 76.0801 76.8728C74.9911 76.646 74.198 76.276 74.3045 75.7388C74.3519 75.4881 74.6004 75.2852 74.9674 75.1778L75.1213 75.0823L78.2938 73.4827L77.7492 75.4523C78.1044 75.703 78.3056 76.0133 78.2464 76.2998Z" fill="#FF9A51"/>
</g>
<path d="M125.736 48.9935C134.673 48.9935 141.919 41.7483 141.919 32.811C141.919 23.8737 134.673 16.6286 125.736 16.6286C116.799 16.6286 109.554 23.8737 109.554 32.811C109.554 41.7483 116.799 48.9935 125.736 48.9935Z" fill="white"/>
<path d="M120.811 29.9967H130.661V35.6254C130.661 36.3718 130.365 37.0876 129.837 37.6154C129.309 38.1432 128.593 38.4397 127.847 38.4397H123.625C122.879 38.4397 122.163 38.1432 121.635 37.6154C121.108 37.0876 120.811 36.3718 120.811 35.6254V29.9967Z" fill="#FF9A51"/>
<path d="M99.2346 12.1726H102.049V89.0978H99.2346V12.1726Z" fill="#F5F5F5"/>
<path d="M125.736 15.9251C123.525 15.9236 121.334 16.358 119.291 17.2036C117.247 18.0491 115.39 19.2891 113.826 20.8528C113.809 20.8519 113.792 20.8502 113.775 20.8502H103.222V11.7036C103.222 11.517 103.147 11.338 103.015 11.2061C102.883 11.0741 102.705 11 102.518 11H99.7036C99.517 11 99.338 11.0741 99.2061 11.2061C99.0741 11.338 99 11.517 99 11.7036V89.5669C99 89.7535 99.0741 89.9324 99.2061 90.0644C99.338 90.1963 99.517 90.2705 99.7036 90.2705H102.518C102.705 90.2705 102.883 90.1963 103.015 90.0644C103.147 89.9324 103.222 89.7535 103.222 89.5669V44.772H113.775C113.792 44.772 113.809 44.7703 113.826 44.7694C115.39 46.3331 117.247 47.5731 119.291 48.4186C121.334 49.2642 123.525 49.6986 125.736 49.6971C135.047 49.6971 142.622 42.1222 142.622 32.8111C142.622 23.5 135.047 15.9251 125.736 15.9251ZM101.814 88.8633H100.407V12.4072H101.814V88.8633ZM103.222 43.3649V22.2573H112.565C110.161 25.2494 108.85 28.9727 108.85 32.8111C108.85 36.6495 110.161 40.3728 112.565 43.3649H103.222ZM125.736 48.2899C117.201 48.2899 110.257 41.3465 110.257 32.8111C110.257 24.2757 117.201 17.3323 125.736 17.3323C134.272 17.3323 141.215 24.2757 141.215 32.8111C141.215 41.3465 134.272 48.2899 125.736 48.2899Z" fill="#685A5A"/>
<path d="M132.42 30.7003H131.365V29.9967C131.365 29.8101 131.291 29.6312 131.159 29.4992C131.027 29.3673 130.848 29.2932 130.661 29.2932H120.811C120.624 29.2932 120.445 29.3673 120.313 29.4992C120.182 29.6312 120.107 29.8101 120.107 29.9967V35.6254C120.108 36.5581 120.479 37.4524 121.139 38.1119C121.798 38.7715 122.693 39.1424 123.625 39.1433H127.847C128.78 39.1424 129.674 38.7715 130.333 38.1119C130.993 37.4524 131.364 36.5581 131.365 35.6254H132.42C132.887 35.6249 133.334 35.4395 133.663 35.1097C133.993 34.7799 134.179 34.3328 134.179 33.8664V32.4593C134.179 31.9929 133.993 31.5458 133.663 31.216C133.334 30.8863 132.887 30.7008 132.42 30.7003ZM129.958 35.6254C129.957 36.185 129.734 36.7214 129.339 37.1171C128.943 37.5128 128.406 37.7354 127.847 37.7362H123.625C123.066 37.7354 122.529 37.5128 122.134 37.1171C121.738 36.7214 121.515 36.185 121.515 35.6254V30.7003H129.958V35.6254ZM132.772 33.8664C132.772 33.9597 132.735 34.0492 132.669 34.1152C132.603 34.1812 132.513 34.2182 132.42 34.2182H131.365V32.1075H132.42C132.513 32.1075 132.603 32.1446 132.669 32.2105C132.735 32.2765 132.772 32.366 132.772 32.4593V33.8664Z" fill="#685A5A"/>
<path d="M124.681 27.886C124.681 28.0726 124.755 28.2516 124.887 28.3835C125.019 28.5155 125.198 28.5896 125.384 28.5896C125.571 28.5896 125.75 28.5155 125.882 28.3835C126.014 28.2516 126.088 28.0726 126.088 27.886C126.088 27.6516 126.15 27.5694 126.299 27.3702C126.495 27.1087 126.792 26.7135 126.792 26.0099C126.792 25.3063 126.495 24.9112 126.299 24.6497C126.15 24.4506 126.088 24.3683 126.088 24.1336C126.088 23.899 126.15 23.817 126.299 23.6176C126.495 23.3562 126.792 22.9609 126.792 22.2574C126.792 22.0708 126.718 21.8918 126.586 21.7598C126.454 21.6279 126.275 21.5538 126.088 21.5538C125.901 21.5538 125.723 21.6279 125.591 21.7598C125.459 21.8918 125.384 22.0708 125.384 22.2574C125.384 22.4919 125.323 22.574 125.173 22.7733C124.977 23.0349 124.681 23.4301 124.681 24.1336C124.681 24.8372 124.977 25.2325 125.173 25.4939C125.323 25.693 125.384 25.7754 125.384 26.0099C125.384 26.2445 125.323 26.3265 125.173 26.5258C124.977 26.7873 124.681 27.1824 124.681 27.886Z" fill="#685A5A"/>
<path d="M121.515 27.886C121.515 28.0726 121.589 28.2516 121.721 28.3835C121.853 28.5155 122.032 28.5896 122.218 28.5896C122.405 28.5896 122.584 28.5155 122.716 28.3835C122.848 28.2516 122.922 28.0726 122.922 27.886C122.922 27.6516 122.983 27.5694 123.133 27.3702C123.329 27.1087 123.625 26.7135 123.625 26.0099C123.625 25.3063 123.329 24.9112 123.133 24.6497C122.983 24.4506 122.922 24.3683 122.922 24.1336C122.922 23.899 122.983 23.817 123.133 23.6176C123.329 23.3562 123.625 22.9609 123.625 22.2574C123.625 22.0708 123.551 21.8918 123.419 21.7598C123.287 21.6279 123.108 21.5538 122.922 21.5538C122.735 21.5538 122.556 21.6279 122.424 21.7598C122.292 21.8918 122.218 22.0708 122.218 22.2574C122.218 22.4919 122.157 22.574 122.007 22.7733C121.811 23.0349 121.515 23.4301 121.515 24.1336C121.515 24.8372 121.811 25.2325 122.007 25.4939C122.157 25.693 122.218 25.7754 122.218 26.0099C122.218 26.2445 122.157 26.3265 122.007 26.5258C121.811 26.7873 121.515 27.1824 121.515 27.886Z" fill="#685A5A"/>
<path d="M127.847 27.886C127.847 28.0726 127.921 28.2516 128.053 28.3835C128.185 28.5155 128.364 28.5896 128.551 28.5896C128.737 28.5896 128.916 28.5155 129.048 28.3835C129.18 28.2516 129.254 28.0726 129.254 27.886C129.254 27.6516 129.316 27.5694 129.465 27.3702C129.661 27.1087 129.958 26.7135 129.958 26.0099C129.958 25.3063 129.661 24.9112 129.465 24.6497C129.316 24.4506 129.254 24.3683 129.254 24.1336C129.254 23.899 129.316 23.817 129.465 23.6176C129.661 23.3562 129.958 22.9609 129.958 22.2574C129.958 22.0708 129.884 21.8918 129.752 21.7598C129.62 21.6279 129.441 21.5538 129.254 21.5538C129.067 21.5538 128.889 21.6279 128.757 21.7598C128.625 21.8918 128.551 22.0708 128.551 22.2574C128.551 22.4919 128.489 22.574 128.339 22.7733C128.143 23.0349 127.847 23.4301 127.847 24.1336C127.847 24.8372 128.143 25.2325 128.339 25.4939C128.489 25.693 128.551 25.7754 128.551 26.0099C128.551 26.2445 128.489 26.3265 128.339 26.5258C128.143 26.7873 127.847 27.1824 127.847 27.886Z" fill="#685A5A"/>
<path d="M132.772 39.8469H118.7C118.514 39.8469 118.335 39.9211 118.203 40.053C118.071 40.1849 117.997 40.3639 117.997 40.5505C117.997 40.7371 118.071 40.9161 118.203 41.048C118.335 41.18 118.514 41.2541 118.7 41.2541H132.772C132.959 41.2541 133.138 41.18 133.27 41.048C133.402 40.9161 133.476 40.7371 133.476 40.5505C133.476 40.3639 133.402 40.1849 133.27 40.053C133.138 39.9211 132.959 39.8469 132.772 39.8469Z" fill="#685A5A"/>
<defs>
<clipPath id="clip0">
<rect width="86" height="84" fill="white" transform="translate(0 18)"/>
</clipPath>
</defs>
</svg>
