<svg width="123" height="109" viewBox="0 0 123 109" fill="none" xmlns="http://www.w3.org/2000/svg">
<path d="M122.418 47.3825C122.418 73.5511 101.002 94.765 74.5843 94.765C48.1664 94.765 26.7505 73.5511 26.7505 47.3825C26.7505 21.2139 48.1664 0 74.5843 0C101.002 0 122.418 21.2139 122.418 47.3825Z" fill="#F5F5F5"/>
<path d="M26.6521 17.0817C26.9565 18.0004 26.8242 20.7563 26.6521 22.3312C26.4801 23.906 25.8185 32.4364 25.8185 32.4364C25.8185 32.4364 24.9583 27.5413 24.6539 26.5045C23.9261 24.0898 21.4118 16.7011 18.924 17.4885L18.4211 17.6723C18.4211 17.6723 19.4136 16.9242 20.6972 16.7142C23.066 16.3468 26.4536 16.478 26.6521 17.0817Z" fill="#685A5A"/>
<path d="M0.0538588 40.4551C0.0538588 40.4551 0.344987 39.1952 2.39612 39.1952C4.44725 39.1952 6.06169 40.2188 7.86139 42.778C9.97869 45.7964 12.7047 54.2612 14.2794 60.4294C15.3249 64.5502 17.7465 77.0571 17.7465 79.2357C17.7465 81.4142 16.7276 83.0416 16.9525 87.5036C17.1775 91.9657 17.2172 103.908 17.2172 103.908C17.2172 103.908 6.19402 104.026 5.02951 104.171C4.18259 104.276 3.99732 103.62 3.99732 103.081C3.99732 102.543 -0.541631 42.1218 0.0538588 40.4551Z" fill="#685A5A"/>
<path d="M19.0964 81.1123C19.0964 81.1123 18.4612 83.3959 18.4612 85.8237C18.4612 88.2516 18.4612 103.869 18.4612 103.869C18.4612 103.869 50.525 103.659 51.7557 103.659C52.9864 103.659 54.5346 103.764 55.236 103.265C55.7521 102.898 55.9638 102.622 56.1491 101.218C56.3211 99.8924 58.359 81.5454 58.359 81.5454C58.359 81.5454 50.4456 79.9049 38.6152 80.3905C31.2047 80.6792 19.0964 81.1123 19.0964 81.1123Z" fill="#685A5A"/>
<path d="M19.3213 79.5374C19.3213 79.5374 45.6155 78.6188 51.1469 79.1437C55.9902 79.6031 58.0149 79.9049 58.0149 79.9049L48.5268 46.4657C48.5268 46.4657 41.672 46.1638 36.7096 46.1638C33.0837 46.1638 25.5144 46.1769 25.2894 47.4499C25.0777 48.7098 22.1532 75.246 19.3213 79.5374Z" fill="#685A5A"/>
<path d="M25.4878 46.0064C25.4878 46.0064 26.2288 41.2294 26.5464 40.6782C26.8905 40.0876 26.9699 39.7595 28.9946 39.3395C29.6827 39.1952 32.8189 39.0377 36.7756 39.0377C45.4565 39.0377 57.5516 38.9065 64.0094 39.0377C69.8849 39.1558 90.9123 39.6545 91.5739 39.917C92.2356 40.1795 98.958 44.5103 99.6593 46.3082C99.6593 46.3082 56.1754 45.3633 35.7831 45.1533C30.1458 45.0877 26.2553 45.6127 25.4878 46.0064Z" fill="#685A5A"/>
<path d="M49.731 46.5576L54.2699 62.9622C54.2699 62.9622 97.0261 63.2378 97.2113 63.0672C97.3966 62.8966 100.599 48.1718 100.453 47.7124C100.321 47.2794 100.149 47.2794 100.149 47.2794C100.149 47.2794 53.4627 46.5576 49.731 46.5576Z" fill="#685A5A"/>
<path d="M94.5384 65.9019C94.4854 66.3481 93.6517 66.6237 92.6725 66.5187C91.6932 66.4137 90.9389 65.9544 90.9919 65.4951C91.0316 65.2195 91.3492 65.0358 91.8256 64.9439L92.0241 63.7759H94.3266L93.8503 65.1801C94.3002 65.3638 94.5781 65.6263 94.5384 65.9019Z" fill="#FF9A51"/>
<path d="M9.56957 108.972C8.16686 109.156 6.90972 108.408 6.76415 107.319C6.68475 106.754 6.92295 106.19 7.35964 105.77L7.22731 105.101C8.78882 104.943 10.6811 104.969 10.6811 104.969L10.7341 105.258C11.3296 105.547 11.753 106.046 11.8324 106.662C11.9912 107.752 10.9723 108.788 9.56957 108.972Z" fill="white"/>
<path d="M10.5742 108.895C9.1715 109.079 7.91435 108.331 7.76879 107.242C7.68939 106.677 7.92759 106.113 8.36428 105.693L8.23195 105.024C9.79345 104.866 11.6858 104.893 11.6858 104.893L11.7387 105.181C12.3342 105.47 12.7577 105.969 12.8371 106.586C12.9959 107.675 11.9769 108.712 10.5742 108.895Z" fill="#FF9A51"/>
<path d="M51.254 107.332C51.0687 108.369 49.7454 109.012 48.303 108.762C46.8606 108.513 45.8416 107.463 46.0269 106.413C46.1063 105.954 46.4106 105.599 46.8473 105.337L46.8076 104.904H50.3938V105.56C51.0687 106.046 51.373 106.689 51.254 107.332Z" fill="white"/>
<path d="M52.2583 107.255C52.0731 108.292 50.7498 108.935 49.3074 108.685C47.865 108.436 46.846 107.386 47.0313 106.336C47.1107 105.877 47.415 105.522 47.8517 105.26L47.812 104.827H51.3982V105.483C52.0731 105.969 52.3774 106.612 52.2583 107.255Z" fill="#FF9A51"/>
<path d="M20.0886 22.5437L10.5469 39.1162V41.125L16.071 53.1777L19.5864 69.7502L24.6084 40.6228L24.1062 33.0898L22.0974 24.0503L20.0886 22.5437Z" fill="#FF9A51"/>
<path d="M25.2364 33.8275C25.2364 32.8433 24.8526 30.4154 23.6087 26.2158C22.3383 21.9374 20.5254 19.1158 19.7843 18.5515C19.083 18.0266 18.1302 18.0397 17.6273 18.4728C17.2436 18.814 1.40356 38.4077 1.40356 38.4077C8.80087 35.7042 12.5326 48.4605 15.1528 58.5395C17.3362 66.9124 18.6992 77.8707 18.6992 77.8707C20.1681 75.4035 24.3233 47.9224 24.5615 46.0326C24.7997 44.1165 25.8054 40.1925 25.8054 40.1925C25.8054 40.1925 25.2364 34.8118 25.2364 33.8275ZM12.8634 40.7175C12.7311 40.7831 12.4929 40.5863 12.3473 40.2713C12.2018 39.9563 12.1753 39.6545 12.3076 39.5888C12.44 39.5232 12.6782 39.7201 12.8237 40.0351C12.9825 40.35 12.9958 40.6519 12.8634 40.7175ZM15.0998 37.1478C14.9675 37.2135 14.7558 37.0166 14.6102 36.7279C14.4646 36.426 14.4514 36.1373 14.5705 36.0848C14.7028 36.0192 14.9146 36.2161 15.0601 36.5048C15.2057 36.8066 15.2189 37.0953 15.0998 37.1478ZM16.1188 51.2558C15.96 51.2952 15.735 51.0327 15.6292 50.6521C15.5233 50.2716 15.563 49.9303 15.7218 49.8778C15.8806 49.8385 16.1055 50.1009 16.2114 50.4815C16.3305 50.8621 16.2908 51.2033 16.1188 51.2558ZM17.0848 33.342C16.9525 33.4076 16.7407 33.2107 16.5952 32.922C16.4496 32.6202 16.4364 32.3314 16.5555 32.2789C16.6878 32.2133 16.8995 32.4102 17.0451 32.6989C17.1907 33.0007 17.2039 33.2895 17.0848 33.342ZM17.8126 46.1901C17.6671 46.2295 17.4686 45.9932 17.3759 45.652C17.2833 45.3108 17.3098 45.0089 17.4553 44.9696C17.6009 44.9302 17.7994 45.1664 17.892 45.5076C17.9846 45.8489 17.9582 46.1507 17.8126 46.1901ZM18.5934 29.1292C18.4346 28.8536 18.3949 28.5649 18.514 28.4993C18.6331 28.4337 18.858 28.6043 19.0301 28.8799C19.1889 29.1555 19.2286 29.4442 19.1095 29.5098C18.9904 29.5886 18.7522 29.418 18.5934 29.1292ZM19.5064 63.6184C19.3609 63.6578 19.1624 63.4215 19.0698 63.0934C18.9771 62.7653 19.0036 62.4504 19.1492 62.411C19.2947 62.3716 19.4932 62.6079 19.5858 62.936C19.6785 63.264 19.652 63.5659 19.5064 63.6184ZM19.5329 41.518C19.4006 41.5705 19.2021 41.3474 19.0962 41.0456C18.9904 40.7306 19.0036 40.4419 19.1359 40.4025C19.2683 40.35 19.4668 40.5731 19.5726 40.875C19.6785 41.1768 19.6652 41.4655 19.5329 41.518ZM20.7636 57.2009C20.618 57.2403 20.4195 57.004 20.3269 56.6628C20.2343 56.3216 20.2607 56.0197 20.4063 55.9804C20.5519 55.941 20.7504 56.1772 20.843 56.5184C20.9489 56.8597 20.9092 57.1615 20.7636 57.2009ZM21.0018 25.6908C20.8827 25.7433 20.6974 25.5596 20.5783 25.284C20.4592 25.0084 20.4592 24.759 20.5783 24.7065C20.6974 24.6541 20.8827 24.8378 21.0018 25.1134C21.1209 25.389 21.1209 25.6383 21.0018 25.6908ZM21.1606 36.5704C21.2665 36.531 21.4253 36.7016 21.5046 36.951C21.5973 37.2003 21.584 37.4234 21.4782 37.4628C21.3723 37.5022 21.2135 37.3316 21.1341 37.0822C21.0547 36.8329 21.0547 36.6098 21.1606 36.5704ZM21.6237 51.4396C21.4782 51.4789 21.2929 51.2296 21.2003 50.9015C21.1077 50.5734 21.1474 50.2584 21.2929 50.2191C21.4385 50.1797 21.6237 50.429 21.7164 50.7571C21.809 51.0984 21.7693 51.4002 21.6237 51.4396ZM22.6295 45.9014C22.5104 45.9276 22.3648 45.7307 22.2986 45.4683C22.2325 45.2058 22.2589 44.9564 22.378 44.9302C22.4971 44.904 22.6427 45.1008 22.7089 45.3633C22.775 45.6258 22.7486 45.862 22.6295 45.9014ZM22.9338 34.0506C22.828 34.09 22.6692 33.9063 22.5898 33.6569C22.4971 33.4076 22.5236 33.1713 22.6295 33.132C22.7353 33.0926 22.8941 33.2763 22.9735 33.5257C23.0529 33.7882 23.0397 34.0244 22.9338 34.0506ZM23.9528 40.7044C23.8601 40.7306 23.7278 40.5731 23.6616 40.3369C23.5955 40.1138 23.6219 39.9038 23.7146 39.8776C23.8072 39.8513 23.9395 40.0088 24.0057 40.245C24.0719 40.4681 24.0454 40.6781 23.9528 40.7044Z" fill="#685A5A"/>
<path d="M88.3876 19.5305H31.1372L28.6262 27.5657L31.1372 36.103H86.3788L90.8986 28.5701L88.3876 19.5305Z" fill="#FF9A51"/>
<path d="M91.8917 16.7798C91.8917 16.7798 35.082 16.7798 33.3088 16.7798C31.5488 16.7798 27.3671 16.9504 27.3671 16.9504C28.439 19.7458 26.282 33.7619 26.282 35.1793C26.282 36.7541 26.4805 38.7621 26.4805 38.7621C28.214 37.5415 44.9142 38.0534 57.5518 38.0534C70.1894 38.0534 91.5344 38.9064 91.5344 38.9064C93.1621 30.3104 93.2812 19.1815 93.2812 17.8297C93.2812 16.7273 91.8917 16.7798 91.8917 16.7798ZM32.1178 28.9455C31.787 28.9455 31.5223 28.683 31.5223 28.3549C31.5223 28.0268 31.787 27.7644 32.1178 27.7644C32.4486 27.7644 32.7133 28.0268 32.7133 28.3549C32.7265 28.683 32.4486 28.9455 32.1178 28.9455ZM36.617 34.195C36.2862 34.195 36.0215 33.9325 36.0215 33.6044C36.0215 33.2763 36.2862 33.0139 36.617 33.0139C36.9479 33.0139 37.2125 33.2763 37.2125 33.6044C37.2258 33.9325 36.9479 34.195 36.617 34.195ZM37.014 22.7774C36.6832 22.7774 36.4185 22.5149 36.4185 22.1868C36.4185 21.8587 36.6832 21.5962 37.014 21.5962C37.3449 21.5962 37.6095 21.8587 37.6095 22.1868C37.6228 22.5149 37.3449 22.7774 37.014 22.7774ZM42.3073 28.9455C41.9764 28.9455 41.7118 28.683 41.7118 28.3549C41.7118 28.0268 41.9764 27.7644 42.3073 27.7644C42.6381 27.7644 42.9028 28.0268 42.9028 28.3549C42.916 28.683 42.6381 28.9455 42.3073 28.9455ZM45.8802 34.195C45.5494 34.195 45.2847 33.9325 45.2847 33.6044C45.2847 33.2763 45.5494 33.0139 45.8802 33.0139C46.211 33.0139 46.4757 33.2763 46.4757 33.6044C46.4889 33.9325 46.211 34.195 45.8802 34.195ZM46.2772 22.7774C45.9464 22.7774 45.6817 22.5149 45.6817 22.1868C45.6817 21.8587 45.9464 21.5962 46.2772 21.5962C46.608 21.5962 46.8727 21.8587 46.8727 22.1868C46.8859 22.5149 46.608 22.7774 46.2772 22.7774ZM51.5704 28.9455C51.2396 28.9455 50.975 28.683 50.975 28.3549C50.975 28.0268 51.2396 27.7644 51.5704 27.7644C51.9013 27.7644 52.1659 28.0268 52.1659 28.3549C52.1792 28.683 51.9013 28.9455 51.5704 28.9455ZM55.1434 34.195C54.8126 34.195 54.5479 33.9325 54.5479 33.6044C54.5479 33.2763 54.8126 33.0139 55.1434 33.0139C55.4742 33.0139 55.7389 33.2763 55.7389 33.6044C55.7521 33.9325 55.4742 34.195 55.1434 34.195ZM55.5404 22.7774C55.2096 22.7774 54.9449 22.5149 54.9449 22.1868C54.9449 21.8587 55.2096 21.5962 55.5404 21.5962C55.8712 21.5962 56.1359 21.8587 56.1359 22.1868C56.1491 22.5149 55.8712 22.7774 55.5404 22.7774ZM60.8336 28.9455C60.5028 28.9455 60.2381 28.683 60.2381 28.3549C60.2381 28.0268 60.5028 27.7644 60.8336 27.7644C61.1645 27.7644 61.4291 28.0268 61.4291 28.3549C61.4423 28.683 61.1645 28.9455 60.8336 28.9455ZM64.4066 34.195C64.0757 34.195 63.8111 33.9325 63.8111 33.6044C63.8111 33.2763 64.0757 33.0139 64.4066 33.0139C64.7374 33.0139 65.0021 33.2763 65.0021 33.6044C65.0153 33.9325 64.7374 34.195 64.4066 34.195ZM64.8036 22.7774C64.4727 22.7774 64.2081 22.5149 64.2081 22.1868C64.2081 21.8587 64.4727 21.5962 64.8036 21.5962C65.1344 21.5962 65.399 21.8587 65.399 22.1868C65.4123 22.5149 65.1344 22.7774 64.8036 22.7774ZM70.0968 28.9455C69.766 28.9455 69.5013 28.683 69.5013 28.3549C69.5013 28.0268 69.766 27.7644 70.0968 27.7644C70.4276 27.7644 70.6923 28.0268 70.6923 28.3549C70.7055 28.683 70.4276 28.9455 70.0968 28.9455ZM73.6697 34.195C73.3389 34.195 73.0742 33.9325 73.0742 33.6044C73.0742 33.2763 73.3389 33.0139 73.6697 33.0139C74.0006 33.0139 74.2652 33.2763 74.2652 33.6044C74.2785 33.9325 74.0006 34.195 73.6697 34.195ZM74.0667 22.7774C73.7359 22.7774 73.4712 22.5149 73.4712 22.1868C73.4712 21.8587 73.7359 21.5962 74.0667 21.5962C74.3976 21.5962 74.6622 21.8587 74.6622 22.1868C74.6755 22.5149 74.3976 22.7774 74.0667 22.7774ZM79.36 28.9455C79.0291 28.9455 78.7645 28.683 78.7645 28.3549C78.7645 28.0268 79.0291 27.7644 79.36 27.7644C79.6908 27.7644 79.9555 28.0268 79.9555 28.3549C79.9687 28.683 79.6908 28.9455 79.36 28.9455ZM82.9329 34.195C82.6021 34.195 82.3374 33.9325 82.3374 33.6044C82.3374 33.2763 82.6021 33.0139 82.9329 33.0139C83.2637 33.0139 83.5284 33.2763 83.5284 33.6044C83.5416 33.9325 83.2637 34.195 82.9329 34.195ZM83.3299 22.7774C82.9991 22.7774 82.7344 22.5149 82.7344 22.1868C82.7344 21.8587 82.9991 21.5962 83.3299 21.5962C83.6607 21.5962 83.9254 21.8587 83.9254 22.1868C83.9386 22.5149 83.6607 22.7774 83.3299 22.7774ZM88.6231 28.9455C88.2923 28.9455 88.0277 28.683 88.0277 28.3549C88.0277 28.0268 88.2923 27.7644 88.6231 27.7644C88.954 27.7644 89.2186 28.0268 89.2186 28.3549C89.2319 28.683 88.954 28.9455 88.6231 28.9455Z" fill="#685A5A"/>
</svg>
