<svg width="93" height="109" viewBox="0 0 93 109" fill="none" xmlns="http://www.w3.org/2000/svg">
<path d="M92.2567 45.6932C92.2567 70.9288 71.6044 91.3864 46.1284 91.3864C20.6524 91.3864 0 70.9288 0 45.6932C0 20.4575 20.6524 0 46.1284 0C71.6044 0 92.2567 20.4575 92.2567 45.6932Z" fill="#F5F5F5"/>
<g>
<ellipse cx="44.5" cy="86.5" rx="7.5" ry="6.5" fill="#FF9A51"/>
<path d="M44.5176 80.7597C45.8004 80.7597 46.8404 80.1478 46.8404 79.3929C46.8404 78.6381 45.8004 78.0261 44.5176 78.0261C43.2348 78.0261 42.1948 78.6381 42.1948 79.3929C42.1948 80.1478 43.2348 80.7597 44.5176 80.7597Z" fill="#685A5A"/>
<path d="M44.5183 83.2261C45.8012 83.2261 46.8411 82.6142 46.8411 81.8593C46.8411 81.1045 45.8012 80.4926 44.5183 80.4926C43.2355 80.4926 42.1956 81.1045 42.1956 81.8593C42.1956 82.6142 43.2355 83.2261 44.5183 83.2261Z" fill="#685A5A"/>
<path d="M46.8004 79.2798H42.1548V81.921H46.8004V79.2798Z" fill="#685A5A"/>
<path d="M44.4776 84.449C45.4229 84.449 46.1892 84.0395 46.1892 83.5344C46.1892 83.0292 45.4229 82.6198 44.4776 82.6198C43.5324 82.6198 42.7661 83.0292 42.7661 83.5344C42.7661 84.0395 43.5324 84.449 44.4776 84.449Z" fill="#685A5A"/>
<path d="M44.4776 86.0933C45.4229 86.0933 46.1892 85.6838 46.1892 85.1787C46.1892 84.6735 45.4229 84.264 44.4776 84.264C43.5324 84.264 42.7661 84.6735 42.7661 85.1787C42.7661 85.6838 43.5324 86.0933 44.4776 86.0933Z" fill="#685A5A"/>
<path d="M46.1994 83.4521H42.7661V85.2197H46.1994V83.4521Z" fill="#685A5A"/>
<path d="M44.4775 89.7312C47.3189 89.7312 49.6223 88.1393 49.6223 86.1755C49.6223 84.2117 47.3189 82.6198 44.4775 82.6198C41.6362 82.6198 39.3328 84.2117 39.3328 86.1755C39.3328 88.1393 41.6362 89.7312 44.4775 89.7312Z" fill="#685A5A"/>
<path d="M18.1527 21.4934L74.9999 28.2041L74.5924 30.465L18.1527 23.4152C18.1527 23.4152 17.8063 21.4523 18.1527 21.4934Z" fill="#685A5A"/>
<path d="M68.9382 28.3177C69.5178 28.3177 69.9876 27.9496 69.9876 27.4956C69.9876 27.0415 69.5178 26.6735 68.9382 26.6735C68.3587 26.6735 67.8889 27.0415 67.8889 27.4956C67.8889 27.9496 68.3587 28.3177 68.9382 28.3177Z" fill="#FF9A51"/>
<path d="M23.2974 23.0766C23.8769 23.0766 24.3467 22.7086 24.3467 22.2545C24.3467 21.8005 23.8769 21.4324 23.2974 21.4324C22.7178 21.4324 22.248 21.8005 22.248 22.2545C22.248 22.7086 22.7178 23.0766 23.2974 23.0766Z" fill="#FF9A51"/>
<path d="M32.1811 36.6213L54.5226 19.5723V18.4419L53.2695 18L30.1639 34.4221C30.1639 34.4221 29.9703 36.1589 30.1639 36.3542C30.3575 36.5494 32.1098 36.6213 32.1811 36.6213Z" fill="#685A5A"/>
<path d="M33.9741 32.932C34.5986 32.932 35.1049 32.5363 35.1049 32.0482C35.1049 31.5601 34.5986 31.1644 33.9741 31.1644C33.3496 31.1644 32.8433 31.5601 32.8433 32.0482C32.8433 32.5363 33.3496 32.932 33.9741 32.932Z" fill="#FF9A51"/>
<path d="M52.2812 19.7779C52.7201 19.7779 53.0758 19.5018 53.0758 19.1613C53.0758 18.8207 52.7201 18.5447 52.2812 18.5447C51.8423 18.5447 51.4866 18.8207 51.4866 19.1613C51.4866 19.5018 51.8423 19.7779 52.2812 19.7779Z" fill="#FF9A51"/>
<path d="M44.4778 28.03C46.6158 28.03 48.3491 27.05 48.3491 25.8411C48.3491 24.6322 46.6158 23.6522 44.4778 23.6522C42.3397 23.6522 40.6064 24.6322 40.6064 25.8411C40.6064 27.05 42.3397 28.03 44.4778 28.03Z" fill="#685A5A"/>
<path d="M44.4777 37.1763C45.7324 37.1763 46.7495 36.1962 46.7495 34.9873C46.7495 33.7784 45.7324 32.7984 44.4777 32.7984C43.223 32.7984 42.2058 33.7784 42.2058 34.9873C42.2058 36.1962 43.223 37.1763 44.4777 37.1763Z" fill="#685A5A"/>
<path d="M44.4777 39.8482C45.5636 39.8482 46.4439 38.8682 46.4439 37.6593C46.4439 36.4504 45.5636 35.4703 44.4777 35.4703C43.3918 35.4703 42.5115 36.4504 42.5115 37.6593C42.5115 38.8682 43.3918 39.8482 44.4777 39.8482Z" fill="#685A5A"/>
<path d="M44.4776 60.5146C45.7604 60.5146 46.8004 59.9027 46.8004 59.1478C46.8004 58.3929 45.7604 57.781 44.4776 57.781C43.1947 57.781 42.1548 58.3929 42.1548 59.1478C42.1548 59.9027 43.1947 60.5146 44.4776 60.5146Z" fill="#685A5A"/>
<path d="M44.4776 62.981C45.7604 62.981 46.8004 62.3691 46.8004 61.6142C46.8004 60.8594 45.7604 60.2474 44.4776 60.2474C43.1947 60.2474 42.1548 60.8594 42.1548 61.6142C42.1548 62.3691 43.1947 62.981 44.4776 62.981Z" fill="#685A5A"/>
<path d="M46.9532 26.8071H42.002V35.7169H46.9532V26.8071Z" fill="#685A5A"/>
<path d="M46.5559 58.9321H42.6132L42.3076 36.9811H46.6578L46.5559 58.9321Z" fill="#685A5A"/>
<path d="M46.4541 79.5367H42.6134L42.5115 61.5012H46.4541V79.5367Z" fill="#685A5A"/>
<path d="M46.8004 59.0348H42.1548V61.6759H46.8004V59.0348Z" fill="#685A5A"/>
<path d="M59.6675 82.3114C61.468 82.3114 62.9276 81.0922 62.9276 79.5881C62.9276 78.0841 61.468 76.8648 59.6675 76.8648C57.867 76.8648 56.4075 78.0841 56.4075 79.5881C56.4075 81.0922 57.867 82.3114 59.6675 82.3114Z" fill="#685A5A"/>
<path d="M64.7612 102.145C64.4148 101.796 63.8138 100.984 62.7441 100.984C61.6744 100.984 60.8797 100.779 59.9934 99.8743C59.1071 98.97 58.6894 97.3257 58.0577 96.6885C58.0577 96.6885 55.2561 92.1668 55.2561 91.7763C55.2561 91.3858 55.1237 88.5083 55.1237 88.5083C55.1237 88.5083 54.7365 88.5391 54.7365 88.1486C54.7365 87.7581 54.655 85.4767 54.655 85.4767C54.655 85.4767 58.1494 83.9866 58.1494 83.6474C58.1494 83.3083 59.3821 83.4625 59.6572 83.1953C59.9323 82.9178 60.1462 82.2806 60.462 82.2087C60.7778 82.1368 62.3569 80.8008 61.7253 79.9067C61.0937 79.0127 58.2309 77.1012 58.2309 77.1012C58.2309 77.1012 56.3462 80.0814 55.5923 80.0814C54.8486 80.0814 52.913 79.5676 52.0674 79.5676C51.2218 79.5676 49.0111 80.0814 47.8599 80.0814C46.7087 80.0814 44.2636 79.7423 44.2636 79.7423C44.2636 79.7423 41.136 80.1534 40.9832 79.9992C40.8304 79.8451 39.8931 79.5676 38.4567 79.5676C37.01 79.5676 34.0454 80.2356 33.7398 80.0814C33.4341 79.9273 32.4765 79.6704 31.9467 77.6664L26.8325 80.3383C26.8325 80.3383 28.3607 82.4245 29.0534 82.702C29.7462 82.9795 30.276 83.0411 30.5612 83.3186C30.8465 83.5961 31.2234 84.6854 31.6309 84.6854C32.0384 84.6854 34.2797 85.2301 34.1269 86.1241C33.9741 87.0182 33.9945 88.1075 33.9945 88.1075H33.3323V90.0601C33.3323 90.0601 34.076 90.0087 34.076 90.3478C34.076 90.687 29.6647 99.0625 27.8615 100.553C26.0583 102.043 25.1108 101.149 24.306 101.457C23.5012 101.765 26.965 108.476 27.5151 107.921C28.0652 107.366 29.736 105.773 30.3473 105.157C30.9585 104.54 31.2336 103.872 31.417 103.687C31.6004 103.502 32.7516 103.009 33.0979 102.659C33.4443 102.31 39.5162 96.1542 40.8711 96.5447C42.2261 96.9352 43.2449 97.8087 44.2127 97.8087C45.1805 97.8087 46.6577 96.5241 47.758 96.5241C48.8583 96.5241 50.7226 97.819 51.5071 98.6103C52.2915 99.4016 56.1221 103.471 56.3971 103.471C56.6722 103.471 57.1408 103.605 57.314 103.779C57.4872 103.954 58.0272 105.198 58.2513 105.424C58.4754 105.65 59.0459 105.455 59.7387 106.4C60.4315 107.345 65.1076 102.495 64.7612 102.145ZM44.4674 92.1771C40.6979 92.1771 37.6416 89.7312 37.6416 86.7099C37.6416 83.6885 40.6979 81.2427 44.4674 81.2427C48.2368 81.2427 51.2931 83.6885 51.2931 86.7099C51.2931 89.7312 48.2368 92.1771 44.4674 92.1771Z" fill="#685A5A"/>
<path d="M29.6138 82.3114C31.4143 82.3114 32.8739 81.0922 32.8739 79.5881C32.8739 78.0841 31.4143 76.8648 29.6138 76.8648C27.8133 76.8648 26.3538 78.0841 26.3538 79.5881C26.3538 81.0922 27.8133 82.3114 29.6138 82.3114Z" fill="#685A5A"/>
<path d="M63.0701 109C65.242 109 67.0026 107.284 67.0026 105.167C67.0026 103.05 65.242 101.334 63.0701 101.334C60.8983 101.334 59.1377 103.05 59.1377 105.167C59.1377 107.284 60.8983 109 63.0701 109Z" fill="#685A5A"/>
<path d="M25.3758 109C27.5476 109 29.3082 107.284 29.3082 105.167C29.3082 103.05 27.5476 101.334 25.3758 101.334C23.204 101.334 21.4434 103.05 21.4434 105.167C21.4434 107.284 23.204 109 25.3758 109Z" fill="#685A5A"/>
</g>
<defs>
<clipPath id="clip0">
<rect width="57" height="91" fill="white" transform="translate(18 18)"/>
</clipPath>
</defs>
</svg>
