<svg width="81" height="79" viewBox="0 0 81 79" fill="none" xmlns="http://www.w3.org/2000/svg">
<path d="M80.154 37.3205C80.154 57.6317 63.6886 74.0971 43.3774 74.0971C23.0663 74.0971 6.60083 57.6317 6.60083 37.3205C6.60083 17.0094 23.0663 0.543945 43.3774 0.543945C63.6886 0.543945 80.154 17.0094 80.154 37.3205Z" fill="#D8ECFE"/>
<g>
<path d="M33.5601 77.8746L34.8912 71.2701H29.9382L31.2693 77.8746C31.5212 79.1244 33.3082 79.1244 33.5601 77.8746Z" fill="#958181"/>
<path d="M65.8778 77.8746L67.2093 71.2701H62.2559L63.5874 77.8746C63.8393 79.1244 65.6259 79.1244 65.8778 77.8746Z" fill="#958181"/>
<path d="M32.9979 71.2701L31.7024 77.6972C31.6607 77.9039 31.5777 78.0769 31.468 78.2173C32.0438 78.9524 33.3775 78.7795 33.5961 77.6972L34.8911 71.2701H32.9979Z" fill="#685A5A"/>
<path d="M65.3158 71.2701L64.0202 77.6972C63.9785 77.9039 63.896 78.0769 63.7859 78.2173C64.3621 78.9524 65.6958 78.7795 65.9139 77.6972L67.2094 71.2701H65.3158Z" fill="#685A5A"/>
<path d="M69.132 41.3197C70.8861 32.3213 65.1423 23.4726 56.1606 21.6346C55.0547 21.4086 53.9097 21.2897 52.7366 21.2897H44.4417C41.7041 21.2897 39.1179 21.9374 36.8275 23.0877C30.1814 26.4257 26.6248 33.8367 27.9892 41.1477L30.9998 57.2789V65.364H65.9744L66.0012 57.3811L69.132 41.3197Z" fill="#FF302C"/>
<path d="M52.7364 21.2897H46.6345C47.8076 21.2897 48.9526 21.4086 50.0585 21.6346C59.0398 23.473 64.784 32.3213 63.0299 41.3197L60.1742 55.9689C59.9912 56.908 59.8973 57.863 59.8943 58.8202L59.8723 65.364H65.9742L65.9962 58.8202C65.9992 57.863 66.0927 56.908 66.2762 55.9689L69.1318 41.3197C70.886 32.3213 65.1421 23.4726 56.1604 21.6346C55.0545 21.4086 53.9095 21.2897 52.7364 21.2897V21.2897Z" fill="#B8280A"/>
<path d="M39.2065 44.9667C39.2065 45.9932 38.3744 46.8252 37.3479 46.8252C36.3218 46.8252 35.4897 45.9932 35.4897 44.9667C35.4897 43.9406 36.3218 43.1085 37.3479 43.1085C38.3744 43.1085 39.2065 43.9406 39.2065 44.9667Z" fill="#685A5A"/>
<path d="M50.3971 44.9667C50.3971 45.9932 49.565 46.8252 48.5385 46.8252C47.512 46.8252 46.6799 45.9932 46.6799 44.9667C46.6799 43.9406 47.512 43.1085 48.5385 43.1085C49.565 43.1085 50.3971 43.9406 50.3971 44.9667Z" fill="#685A5A"/>
<path d="M61.6576 44.9667C61.6576 45.9932 60.8256 46.8252 59.7991 46.8252C58.7726 46.8252 57.9409 45.9932 57.9409 44.9667C57.9409 43.9406 58.7726 43.1085 59.7991 43.1085C60.8256 43.1085 61.6576 43.9406 61.6576 44.9667Z" fill="#685A5A"/>
<path d="M44.2951 54.5308C44.2951 55.5573 43.463 56.3889 42.4365 56.3889C41.41 56.3889 40.5784 55.5573 40.5784 54.5308C40.5784 53.5043 41.41 52.6722 42.4365 52.6722C43.463 52.6722 44.2951 53.5043 44.2951 54.5308Z" fill="#685A5A"/>
<path d="M55.5558 54.5308C55.5558 55.5573 54.7237 56.3889 53.6972 56.3889C52.6712 56.3889 51.8391 55.5573 51.8391 54.5308C51.8391 53.5043 52.6712 52.6722 53.6972 52.6722C54.7237 52.6722 55.5558 53.5043 55.5558 54.5308Z" fill="#685A5A"/>
<path d="M68.7494 72.2659H28.3984C27.2402 72.2659 26.3015 71.3272 26.3015 70.1691V69.4423C26.3015 65.5988 29.4174 62.4828 33.2614 62.4828H63.8864C67.73 62.4828 70.8459 65.5988 70.8459 69.4423V70.1691C70.8459 71.3272 69.9072 72.2659 68.7494 72.2659Z" fill="#F01914"/>
<path d="M63.6687 62.4828H57.6348C58.9895 63.788 59.8335 65.6198 59.8335 67.6496V68.0937C59.8335 69.2878 58.8658 70.2555 57.6716 70.2555H26.3093C26.3874 71.3786 27.3209 72.2659 28.4637 72.2659H68.684C69.8781 72.2659 70.8458 71.2978 70.8458 70.1037V69.6595C70.8458 65.6962 67.6325 62.4828 63.6687 62.4828Z" fill="#B8280A"/>
<path d="M27.8685 68.4707C27.3897 68.4707 27.0017 68.0827 27.0017 67.6039V59.668C27.0017 59.1892 27.3897 58.8013 27.8685 58.8013C28.3473 58.8013 28.7352 59.1892 28.7352 59.668V67.6039C28.7352 68.0827 28.3473 68.4707 27.8685 68.4707Z" fill="#685A5A"/>
<path d="M69.2787 68.4707C68.8003 68.4707 68.4124 68.0827 68.4124 67.6039V59.668C68.4124 59.1892 68.8003 58.8013 69.2787 58.8013C69.7575 58.8013 70.1454 59.1892 70.1454 59.668V67.6039C70.1454 68.0827 69.7575 68.4707 69.2787 68.4707Z" fill="#685A5A"/>
<path d="M30.5228 59.8742H26.6569C24.919 59.8742 23.5103 58.4655 23.5103 56.728V56.05C23.5103 54.3126 24.919 52.9038 26.6569 52.9038H30.5228C32.2603 52.9038 33.669 54.3126 33.669 56.05V56.728C33.669 58.4655 32.2603 59.8742 30.5228 59.8742Z" fill="#FF302C"/>
<path d="M70.4906 59.8742H66.6247C64.8868 59.8742 63.478 58.4655 63.478 56.728V56.05C63.478 54.3126 64.8868 52.9038 66.6247 52.9038H70.4906C72.228 52.9038 73.6368 54.3126 73.6368 56.05V56.728C73.6368 58.4655 72.2285 59.8742 70.4906 59.8742Z" fill="#F01914"/>
<path d="M70.4116 52.9038H67.0376C68.8189 52.9038 70.2632 54.3477 70.2632 56.1294V56.6486C70.2632 58.4299 68.8189 59.8742 67.0376 59.8742H70.4116C72.1929 59.8742 73.6367 58.4299 73.6367 56.6486V56.1294C73.6367 54.3477 72.1929 52.9038 70.4116 52.9038Z" fill="#B8280A"/>
<path d="M30.374 52.9038H27C28.7813 52.9038 30.2256 54.3477 30.2256 56.1294V56.6486C30.2256 58.4299 28.7813 59.8742 27 59.8742H30.374C32.1553 59.8742 33.5991 58.4299 33.5991 56.6486V56.1294C33.5991 54.3477 32.1553 52.9038 30.374 52.9038Z" fill="#B8280A"/>
<path d="M52.8283 36.5811C53.2281 36.5811 53.5598 36.2721 53.5884 35.8732L54.0579 29.2639C54.0768 29.0112 53.7463 28.9001 53.609 29.113L50.8073 33.4476C50.6954 33.621 50.4321 33.5858 50.3693 33.3897L48.4682 27.4493C48.3958 27.2228 48.0754 27.2228 48.003 27.4493L46.1018 33.3897C46.0386 33.5858 45.7758 33.621 45.6639 33.4476L42.8516 29.0967C42.7151 28.8852 42.3864 28.994 42.4027 29.2455L42.863 35.8719C42.8907 36.2717 43.2225 36.5811 43.6232 36.5811H52.8283Z" fill="#FFC50C"/>
<path d="M53.6091 29.113L51.4925 32.3873L51.245 35.8732C51.2164 36.2721 50.8847 36.5811 50.4849 36.5811H52.8284C53.2282 36.5811 53.5599 36.2721 53.588 35.8732L54.0576 29.2639C54.0769 29.0112 53.7465 28.9001 53.6091 29.113Z" fill="#FF6914"/>
</g>
<path d="M5.54492 27.0034L8.28418 17.9141H11.0566L6.84814 30H4.25L0.0581055 17.9141H2.82227L5.54492 27.0034ZM14.8501 30H12.3599V17.9141H14.8501V30ZM19.6562 25.7417V30H17.166V17.9141H21.8809C22.7884 17.9141 23.5853 18.0801 24.2715 18.4121C24.9632 18.7441 25.4945 19.2173 25.8652 19.8315C26.236 20.4403 26.4214 21.1348 26.4214 21.915C26.4214 23.0993 26.0146 24.0345 25.2012 24.7207C24.3932 25.4014 23.2726 25.7417 21.8394 25.7417H19.6562ZM19.6562 23.7246H21.8809C22.5394 23.7246 23.0402 23.5697 23.3833 23.2598C23.7319 22.9499 23.9062 22.5072 23.9062 21.9316C23.9062 21.3395 23.7319 20.8608 23.3833 20.4956C23.0347 20.1304 22.5532 19.9422 21.939 19.9312H19.6562V23.7246Z" fill="#8B66A9"/>
<defs>
<clipPath id="clip0">
<rect width="57.5223" height="57.5223" fill="white" transform="translate(19.8027 21.2897)"/>
</clipPath>
</defs>
</svg>
