<svg width="23" height="23" viewBox="0 0 23 23" fill="none" xmlns="http://www.w3.org/2000/svg">
<path d="M2 19.5V4H20.5V19.5H2Z" fill="white"/>
<path d="M20.7582 0H1.4159C0.633636 0 0 0.633636 0 1.41434V20.7567C0 21.5374 0.633636 22.171 1.4159 22.171H20.7567C21.5374 22.171 22.171 21.5374 22.171 20.7567V1.41434C22.1726 0.632071 21.5389 0 20.7582 0ZM18.3911 13.5097C18.7963 13.9228 19.6756 14.6159 19.516 15.3215C19.3689 15.9692 18.402 15.7329 17.4633 15.7705C16.3916 15.8159 15.7564 15.8393 15.1118 15.3215C14.8083 15.0758 14.6299 14.7848 14.3389 14.4594C14.0745 14.1653 13.7413 13.638 13.2876 13.6584C12.4725 13.6991 12.7275 14.8349 12.438 15.6093C7.90715 16.3228 6.0876 13.5238 4.48239 10.8078C3.70481 9.49202 2.58148 6.66648 2.58148 6.66648L5.78564 6.65552C5.78564 6.65552 6.81354 8.52514 7.08577 9.00702C7.31732 9.41693 7.57234 9.74235 7.83518 10.1084C8.05578 10.412 8.40467 11.0065 8.78642 10.958C9.40754 10.8782 9.52018 8.46882 9.13531 7.66152C8.98199 7.33453 8.61432 7.22032 8.23414 7.10924C8.36243 6.29881 11.8279 6.12984 12.388 6.75878C13.2015 7.67247 11.8247 10.2164 12.9387 10.958C14.5032 10.1382 15.8393 6.70559 15.8393 6.70559L19.5911 6.72906C19.5911 6.72906 19.0044 8.58459 18.3895 9.40754C18.0312 9.88941 16.8422 10.9627 16.8891 11.759C16.9267 12.3895 17.8936 13.0028 18.3911 13.5097Z" fill="#4D76A1"/>
</svg>
