<svg width="21" height="21" viewBox="0 0 21 21" fill="none" xmlns="http://www.w3.org/2000/svg">
<path d="M19.5681 17.182H16.2272C14.1219 17.182 12.409 15.4691 12.409 13.3639C12.409 11.2586 14.1219 9.54572 16.2272 9.54572H19.5681C19.8319 9.54572 20.0453 9.33224 20.0453 9.06843V7.63663C20.0453 6.63579 19.269 5.82186 18.2882 5.74293L15.5472 0.955325C15.2932 0.512539 14.883 0.196065 14.3922 0.0646521C13.9037 -0.065866 13.3929 0.00268173 12.9557 0.257141L3.55938 5.72754H1.90909C0.85622 5.72754 0 6.58371 0 7.63663V19.0911C0 20.144 0.856176 21.0002 1.90909 21.0002H18.1362C19.1891 21.0002 20.0453 20.144 20.0453 19.0911V17.6593C20.0453 17.3955 19.8319 17.182 19.5681 17.182ZM16.1391 3.91111L17.179 5.72754H13.0191L16.1391 3.91111ZM5.45653 5.72754L13.4363 1.08209C13.6521 0.955773 13.9042 0.922215 14.1452 0.986557C14.3889 1.05179 14.5922 1.20934 14.7185 1.42979L14.7195 1.43154L7.34074 5.72754H5.45653Z" fill="#E5E5E5"/>
<path d="M19.5678 10.5H16.2269C14.6478 10.5 13.3633 11.7845 13.3633 13.3636C13.3633 14.9427 14.6478 16.2272 16.2269 16.2272H19.5678C20.3573 16.2272 20.9996 15.585 20.9996 14.7954V11.9318C20.9996 11.1423 20.3573 10.5 19.5678 10.5ZM16.2269 14.3181C15.7007 14.3181 15.2724 13.8898 15.2724 13.3636C15.2724 12.8374 15.7007 12.4091 16.2269 12.4091C16.7531 12.4091 17.1814 12.8374 17.1814 13.3636C17.1815 13.8898 16.7531 14.3181 16.2269 14.3181Z" fill="#E5E5E5"/>
</svg>
