<svg width="93" height="115" viewBox="0 0 93 115" fill="none" xmlns="http://www.w3.org/2000/svg">
<path d="M92.2567 45.6932C92.2567 70.9288 71.6044 91.3864 46.1284 91.3864C20.6524 91.3864 0 70.9288 0 45.6932C0 20.4575 20.6524 0 46.1284 0C71.6044 0 92.2567 20.4575 92.2567 45.6932Z" fill="#F5F5F5"/>
<g>
<path d="M44.8003 43.4184C44.8003 43.4184 45.6528 50.2143 45.6528 52.8469C45.6528 52.8469 46.7488 53.1939 47.52 52.7857C47.52 52.7857 47.3475 44.6531 46.83 43.551C46.3022 42.449 44.8003 43.4184 44.8003 43.4184Z" fill="#685A5A"/>
<path d="M47.8752 52.6531L48.3116 52.5715C48.3116 52.5715 48.413 44.7857 48.5856 43.6225C48.7581 42.4694 47.2358 42.9082 47.2358 42.9082C47.2358 42.9082 47.9665 47.6735 47.8752 52.6531Z" fill="#685A5A"/>
<path d="M47.0024 55.898C49.4405 55.898 51.4169 55.1305 51.4169 54.1837C51.4169 53.2369 49.4405 52.4694 47.0024 52.4694C44.5643 52.4694 42.5879 53.2369 42.5879 54.1837C42.5879 55.1305 44.5643 55.898 47.0024 55.898Z" fill="#685A5A"/>
<path d="M47.0024 65.5918C49.4405 65.5918 51.4169 64.8243 51.4169 63.8776C51.4169 62.9308 49.4405 62.1633 47.0024 62.1633C44.5643 62.1633 42.5879 62.9308 42.5879 63.8776C42.5879 64.8243 44.5643 65.5918 47.0024 65.5918Z" fill="#685A5A"/>
<path d="M56.6432 42.8776C56.6432 42.8776 53.0507 47.1021 51.9953 49.2755C50.9399 51.449 50.9703 51.8674 50.8384 53.0612C50.7065 54.2551 50.9805 65.1735 50.9805 65.9082C50.9805 66.6429 51.1631 67.6633 51.6401 69.0408C52.1171 70.4184 68.0297 102.704 68.3544 103.112C68.3544 103.112 68.3138 103.48 68.4254 103.673C68.5371 103.867 68.7908 104.602 69.0242 104.704C69.2576 104.806 70.3232 104.867 70.6885 104.51C71.0539 104.153 70.7393 103.439 70.4551 103.041C70.171 102.643 69.9883 102.571 69.9883 102.571C69.9883 102.571 52.8072 68.6225 52.7767 66.5306C52.7463 64.4286 52.726 64.2551 52.726 64.2551C52.726 64.2551 53.1319 64.2245 53.1319 63.9592C53.1319 63.6939 53.1725 63.4082 52.726 63.3163L52.5839 55.2857C52.5839 55.2857 53 55.2755 53 55C53 54.7245 53.0406 54.5408 52.9898 54.4898C52.9391 54.4388 52.5738 54.1939 52.5738 54.1939C52.5738 54.1939 52.381 51.8367 54.1062 49.2653C55.8314 46.6939 58.8353 42.8776 58.8353 42.8776H56.6432Z" fill="#685A5A"/>
<path d="M36.8033 42.8265C36.8033 42.8265 40.7002 47.0714 41.7556 49.2551C42.8111 51.4388 43.1054 52.3469 43.2272 53.5408C43.3489 54.7347 43.5113 65.7653 43.3997 66.4796C43.2779 67.2143 43.0749 68.6327 42.4457 69.949C41.37 72.1939 28.0554 102 27.7307 102.408C27.7307 102.408 27.7713 102.776 27.6596 102.969C27.548 103.163 27.2943 103.898 27.0609 104C26.8275 104.092 25.7923 104.061 25.4371 103.694C25.082 103.327 25.5386 102.398 25.8329 102C26.1272 101.602 26.3302 101.235 26.3302 101.235C26.3302 101.235 41.4309 68.4388 41.5933 66.8878C41.7759 65.2245 41.5324 64.2551 41.5324 64.2551C41.5324 64.2551 41.2279 64.2245 41.2279 63.9592C41.2279 63.6939 41.1873 63.4082 41.6339 63.3163L41.37 55.1837C41.37 55.1837 41.0554 55.1735 41.0554 54.898C41.0554 54.6225 41.0148 54.4388 41.0656 54.3878C41.1163 54.3367 41.3193 54.0918 41.3193 54.0918C41.3193 54.0918 41.5324 51.7857 39.6245 49.3469C37.5948 46.7449 34.6417 42.9286 34.6417 42.9286L36.8033 42.8265Z" fill="#685A5A"/>
<path d="M46.4951 43.9388C64.4471 43.9388 79.0001 40.1377 79.0001 35.449C79.0001 30.7602 64.4471 26.9592 46.4951 26.9592C28.543 26.9592 13.99 30.7602 13.99 35.449C13.99 40.1377 28.543 43.9388 46.4951 43.9388Z" fill="#FF9A51"/>
<path d="M79 32.5H77.1023V35.3571H79V32.5Z" fill="#FF9A51"/>
<path d="M15.8977 32.5H14V35.3571H15.8977V32.5Z" fill="#FF9A51"/>
<path d="M46.4934 40.9796C64.4454 40.9796 78.9984 37.1786 78.9984 32.4898C78.9984 27.801 64.4454 24 46.4934 24C28.5413 24 13.9883 27.801 13.9883 32.4898C13.9883 37.1786 28.5413 40.9796 46.4934 40.9796Z" fill="#685A5A"/>
<path d="M48.3725 55.1428H45.8354V62.3367H48.3725V55.1428Z" fill="#685A5A"/>
<path d="M45.8353 64.8163C46.0078 66.3163 44.7393 111.582 44.4653 112.745C44.4653 112.745 44.242 112.796 44.242 113.01C44.242 113.225 44.2014 114.561 44.2014 114.561C44.2014 114.561 44.7291 115 45.4395 115C46.1499 115 46.566 114.776 46.566 114.663C46.566 114.551 46.7588 112.929 46.6979 112.867C46.637 112.806 46.4746 112.725 46.4746 112.725C46.4746 112.725 47.8853 67.4796 47.8142 65.0919C47.7432 62.7041 47.8142 65.0306 47.8142 65.0306C47.8142 65.0306 45.6425 63.1633 45.8353 64.8163Z" fill="#685A5A"/>
<path d="M48.2506 65.9286L49.4989 94.3776C49.4989 94.3776 49.6105 94.398 49.712 94.5102C49.8135 94.6225 49.7729 95.8674 49.7729 95.8674C49.7729 95.8674 49.6714 96.3061 48.9204 96.3878C48.1999 96.4694 47.8751 95.949 47.8751 95.8265C47.8751 95.7041 47.8244 94.6531 47.8751 94.6021C47.9259 94.551 47.9259 94.551 47.9259 94.551L47.6519 85.8674L48.2506 65.9286Z" fill="#685A5A"/>
</g>
<defs>
<clipPath id="clip0">
<rect width="65" height="91" fill="white" transform="translate(14 24)"/>
</clipPath>
</defs>
</svg>
