<svg width="82" height="92" viewBox="0 0 82 92" fill="none" xmlns="http://www.w3.org/2000/svg">
<circle cx="44.7766" cy="43.7766" r="36.7766" fill="#D8ECFE"/>
<path d="M53 54.6495V59H59.791C60.3365 57.0243 61.8471 55.4147 63.8151 54.6495H53Z" fill="#FE646F"/>
<path d="M79.4465 54.6495H68.1658C70.1339 55.4147 71.6445 57.0243 72.1898 59H78.3013C79.1354 59 79.8115 58.3601 79.8115 57.5707V54.7924L79.4465 54.6495Z" fill="#FE646F"/>
<path d="M13 54H55V59H15C13.8954 59 13 58.1046 13 57V54Z" fill="#4A4747"/>
<path d="M59.4275 0H59.3889C54.7198 0 50.9214 3.97324 50.9214 8.85695C50.9214 12.0582 52.3147 16.2831 55.0626 21.4144C57.0999 25.2187 59.1657 28.1323 59.1864 28.1612C59.2439 28.2421 59.3345 28.2897 59.4306 28.2897C59.4333 28.2897 59.4361 28.2897 59.4388 28.2895C59.5379 28.2867 59.6294 28.2336 59.6843 28.1472C59.7047 28.1149 61.7558 24.8739 63.7793 20.9098C66.5104 15.5593 67.8952 11.504 67.8952 8.85695C67.895 3.97318 64.0965 0 59.4275 0ZM63.336 9.07339C63.336 11.3397 61.574 13.1833 59.4082 13.1833C57.2424 13.1833 55.4804 11.3396 55.4804 9.07339C55.4804 6.80717 57.2424 4.96347 59.4082 4.96347C61.574 4.96347 63.336 6.80717 63.336 9.07339Z" fill="#8B66A9"/>
<path d="M76.942 47.4938H79.6969L79.8115 47.3428V45.0318C79.8115 44.6616 79.7559 44.2957 79.6502 43.9447L79.4382 43.7937H59.7352C59.402 43.7937 59.1311 43.5228 59.1311 43.1896V34.5811C59.1311 34.248 59.402 33.977 59.7352 33.977H73.3748L73.4582 33.826L72.251 31.9033C71.9748 31.4632 71.4916 31.196 70.972 31.196H54.9722V54.8005H62.6465C63.5353 54.3768 64.5289 54.1388 65.5773 54.1388C66.6258 54.1388 67.6194 54.3767 68.5081 54.8005H79.8115V52.6287L79.7304 52.4777H76.942C76.6088 52.4777 76.3379 52.2067 76.3379 51.8736V48.0979C76.3379 47.7648 76.6088 47.4938 76.942 47.4938Z" fill="#FF302C"/>
<path d="M62.7556 34.0425L62.6046 33.826H59.7351C59.3181 33.826 58.98 34.1642 58.98 34.5812V43.1896C58.98 43.6066 59.3181 43.9448 59.7351 43.9448H62.6046L62.7556 43.6779V34.0425Z" fill="#FE646F"/>
<path d="M46.8635 17.8173H14.1262C13.2921 17.8173 12.616 18.4935 12.616 19.3276V54.8006H33.7508C34.084 54.8006 33.7508 54.8006 34.6881 54.8006H51.5697C51.9029 54.8006 52.1738 54.8006 52.1738 54.8006H55.1232V26.363C55.0959 17.7914 55.1232 26.363 55.1232 17.8173C46.8635 17.8173 55.1232 17.8173 46.8635 17.8173Z" fill="#685A5A"/>
<circle cx="66" cy="61" r="7" fill="#949090"/>
<path d="M61 66C62.8068 68 65.5 68 65.5 68C62 65.5 61.422 62.9261 61.422 60.913C61.422 57.5162 63.8286 54.6938 67 54.112C66.6068 54.0398 66.2025 54 65.789 54C62.0396 54 59 57.095 59 60.9129C59 62.9256 59.652 64.7367 61 66Z" fill="#7A7878"/>
<path d="M65.7379 64.7108C67.8023 64.7108 69.4758 63.0372 69.4758 60.9729C69.4758 58.9085 67.8023 57.235 65.7379 57.235C63.6735 57.235 62 58.9085 62 60.9729C62 63.0372 63.6735 64.7108 65.7379 64.7108Z" fill="#CFCAE4"/>
<path d="M66.0011 62.974C67.1063 62.974 68.0022 62.0781 68.0022 60.9729C68.0022 59.8677 67.1063 58.9718 66.0011 58.9718C64.8959 58.9718 64 59.8677 64 60.9729C64 62.0781 64.8959 62.974 66.0011 62.974Z" fill="white"/>
<path d="M65.5858 60.9729C65.5858 60.1512 66.084 59.4441 66.794 59.1364C66.5507 59.031 66.2828 58.9718 66.0011 58.9718C64.8977 58.9718 64 59.8695 64 60.9729C64 62.0763 64.8975 62.974 66.0011 62.974C66.2828 62.974 66.5507 62.9148 66.794 62.8094C66.084 62.5016 65.5858 61.7946 65.5858 60.9729Z" fill="#605D5D"/>
<circle cx="28" cy="61" r="7" fill="#949090"/>
<path d="M23 66C24.8068 68 27.5 68 27.5 68C24 65.5 23.422 62.9261 23.422 60.913C23.422 57.5162 25.8286 54.6938 29 54.112C28.6068 54.0398 28.2025 54 27.789 54C24.0396 54 21 57.095 21 60.9129C21 62.9256 21.652 64.7367 23 66Z" fill="#7A7878"/>
<path d="M27.7379 64.7108C29.8023 64.7108 31.4758 63.0372 31.4758 60.9729C31.4758 58.9085 29.8023 57.235 27.7379 57.235C25.6735 57.235 24 58.9085 24 60.9729C24 63.0372 25.6735 64.7108 27.7379 64.7108Z" fill="#CFCAE4"/>
<path d="M28.0011 62.974C29.1063 62.974 30.0022 62.0781 30.0022 60.9729C30.0022 59.8677 29.1063 58.9718 28.0011 58.9718C26.8959 58.9718 26 59.8677 26 60.9729C26 62.0781 26.8959 62.974 28.0011 62.974Z" fill="white"/>
<path d="M27.5858 60.9729C27.5858 60.1512 28.084 59.4441 28.794 59.1364C28.5507 59.031 28.2828 58.9718 28.0011 58.9718C26.8977 58.9718 26 59.8695 26 60.9729C26 62.0763 26.8975 62.974 28.0011 62.974C28.2828 62.974 28.5507 62.9148 28.794 62.8094C28.084 62.5016 27.5858 61.7946 27.5858 60.9729Z" fill="#605D5D"/>
<path d="M79.2336 43.0241L73.4584 33.826H62.6047V43.9448H79.6503C79.5533 43.6223 79.4144 43.3121 79.2336 43.0241Z" fill="white"/>
<path d="M79.8116 47.3428H76.9421C76.5252 47.3428 76.187 47.681 76.187 48.098V51.8736C76.187 52.2906 76.5252 52.6287 76.9421 52.6287H79.8116V47.3428Z" fill="#FFC50C"/>
<path d="M8.01049 37.5486H7.97415C3.57713 37.5486 0 41.1245 0 45.5199C0 48.401 1.31212 52.2034 3.8999 56.8216C5.81846 60.2455 7.76393 62.8677 7.78341 62.8938C7.83757 62.9665 7.92292 63.0094 8.01336 63.0094C8.01593 63.0094 8.01856 63.0094 8.02113 63.0093C8.11443 63.0067 8.20057 62.9589 8.25233 62.8812C8.27151 62.8521 10.2031 59.9352 12.1087 56.3674C14.6806 51.552 15.9848 47.9023 15.9848 45.5199C15.9846 41.1245 12.4074 37.5486 8.01049 37.5486ZM11.6913 45.7147C11.6913 47.7543 10.0319 49.4136 7.99226 49.4136C5.95265 49.4136 4.29332 47.7543 4.29332 45.7147C4.29332 43.6751 5.95265 42.0157 7.99226 42.0157C10.0319 42.0157 11.6913 43.6751 11.6913 45.7147Z" fill="#8B66A9"/>
<path d="M49.5062 60.1763H49.4613C44.0267 60.1763 39.6055 64.596 39.6055 70.0285C39.6055 73.5896 41.2272 78.2892 44.4256 83.9972C46.7969 88.229 49.2015 91.47 49.2256 91.5022C49.2925 91.5921 49.398 91.6451 49.5098 91.6451C49.5129 91.6451 49.5162 91.6451 49.5194 91.645C49.6347 91.6418 49.7411 91.5828 49.8051 91.4866C49.8288 91.4507 52.2162 87.8455 54.5714 83.4358C57.7503 77.4841 59.3622 72.9731 59.3622 70.0285C59.362 64.5959 54.9407 60.1763 49.5062 60.1763ZM54.0555 70.2693C54.0555 72.7903 52.0046 74.8411 49.4837 74.8411C46.9628 74.8411 44.9119 72.7902 44.9119 70.2693C44.9119 67.7484 46.9628 65.6975 49.4837 65.6975C52.0046 65.6975 54.0555 67.7484 54.0555 70.2693Z" fill="#8B66A9"/>
</svg>
