<svg width="25" height="17" viewBox="0 0 25 17" fill="none" xmlns="http://www.w3.org/2000/svg">
<path d="M0 12.9718C0 13.225 0.177384 13.4236 0.430516 13.4236H1.11788C1.57974 12.4049 2.63128 11.634 3.85224 11.634C5.07325 11.634 6.12455 12.4049 6.58665 13.4236H15.5211V9.76807H0V12.9718Z" fill="#E5E5E5"/>
<path d="M3.85231 12.6001C2.73329 12.6001 1.82617 13.5072 1.82617 14.6262C1.82617 15.7453 2.73329 16.6524 3.85231 16.6524C4.97079 16.6511 5.87719 15.7447 5.87844 14.6262C5.87844 13.5073 4.97133 12.6001 3.85231 12.6001Z" fill="#E5E5E5"/>
<path d="M24.4263 8.2793L22.4967 7.43115H16.48V13.4239H17.6478C18.11 12.4051 19.1612 11.6342 20.3822 11.6342C21.6032 11.6342 22.6547 12.4051 23.1166 13.4239H24.2595C24.5126 13.4239 24.69 13.2252 24.69 12.9721V8.71521C24.6964 8.53045 24.5929 8.35942 24.4263 8.2793Z" fill="#E5E5E5"/>
<path d="M20.5128 3.97575C20.272 3.51402 19.7912 3.22774 19.2705 3.23601H16.48V6.47208H21.8084L20.5128 3.97575Z" fill="#E5E5E5"/>
<path d="M14.145 0H1.36898C0.598372 0 0 0.634389 0 1.40499V8.80929H15.5211V1.40499C15.5211 1.40283 15.5212 1.40068 15.5212 1.39852C15.5274 0.632351 14.9112 0.00617249 14.145 0Z" fill="#E5E5E5"/>
<path d="M20.382 12.6001C19.263 12.6002 18.3559 13.5073 18.356 14.6263C18.356 15.7453 19.2631 16.6524 20.3822 16.6524C21.5006 16.6511 22.407 15.7447 22.4082 14.6262V14.6262C22.4082 13.5072 21.5011 12.6001 20.382 12.6001Z" fill="#E5E5E5"/>
</svg>
