<svg width="15" height="15" viewBox="0 0 15 15" fill="none" xmlns="http://www.w3.org/2000/svg">
<g clip-path="url(#clip0)">
<path d="M2.44858 4.90009H0.489728C0.22043 4.90009 0 5.11941 0 5.38979V14.2047C0 14.4749 0.219463 14.6943 0.489728 14.6943H2.44858C2.71884 14.6943 2.93831 14.4749 2.93831 14.2047V5.38979C2.93831 5.11941 2.71785 4.90009 2.44858 4.90009Z" fill="white"/>
<path d="M13.7773 4.90009C13.6985 4.88673 10.0057 4.90009 10.0057 4.90009L10.5215 3.4929C10.8774 2.521 10.6469 1.03702 9.65943 0.509443C9.33789 0.337646 8.88865 0.251367 8.52646 0.342539C8.31874 0.394805 8.13619 0.532324 8.02738 0.716573C7.90226 0.928477 7.91518 1.17583 7.87062 1.41079C7.75762 2.00675 7.47601 2.57338 7.03993 2.99869C6.27962 3.74022 3.91772 5.87948 3.91772 5.87948V13.7149H12.0796C13.181 13.7156 13.9027 12.4857 13.3595 11.525C14.007 11.1103 14.2285 10.2368 13.8493 9.56618C14.4968 9.15148 14.7182 8.27799 14.339 7.60733C15.4562 6.89181 15.0827 5.12087 13.7773 4.90009Z" fill="white"/>
</g>
<defs>
<clipPath id="clip0">
<rect width="15" height="15" fill="white"/>
</clipPath>
</defs>
</svg>
