<svg width="14" height="14" viewBox="0 0 14 14" fill="none" xmlns="http://www.w3.org/2000/svg">
<path d="M9.8 0H4.2C1.88417 0 0 1.88366 0 4.19888V7.46468C0 9.70175 1.75887 11.5357 3.96667 11.6573V13.6037C3.96667 13.8222 4.14493 14 4.36403 14C4.4688 14 4.56797 13.9585 4.64287 13.8836L5.0806 13.446C6.23 12.2967 7.75857 11.6636 9.38443 11.6636H9.8C12.1158 11.6636 14 9.77989 14 7.46468V4.19888C14 1.88366 12.1158 0 9.8 0ZM3.96667 6.76486C3.45193 6.76486 3.03333 6.34637 3.03333 5.83178C3.03333 5.31718 3.45193 4.89869 3.96667 4.89869C4.4814 4.89869 4.9 5.31718 4.9 5.83178C4.9 6.34637 4.48117 6.76486 3.96667 6.76486ZM7 6.76486C6.48527 6.76486 6.06667 6.34637 6.06667 5.83178C6.06667 5.31718 6.48527 4.89869 7 4.89869C7.51473 4.89869 7.93333 5.31718 7.93333 5.83178C7.93333 6.34637 7.5145 6.76486 7 6.76486ZM10.0333 6.76486C9.5186 6.76486 9.1 6.34637 9.1 5.83178C9.1 5.31718 9.5186 4.89869 10.0333 4.89869C10.5481 4.89869 10.9667 5.31718 10.9667 5.83178C10.9667 6.34637 10.5478 6.76486 10.0333 6.76486Z" fill="white"/>
</svg>
