<svg width="15" height="15" viewBox="0 0 15 15" fill="none" xmlns="http://www.w3.org/2000/svg">
<path d="M15 7.5C15 3.36442 11.6356 0 7.5 0C3.36442 0 0 3.36442 0 7.5C0 8.84781 0.358756 10.1601 1.04 11.3122L0.0275735 14.9723L3.68781 13.96C4.8399 14.6412 6.15219 15 7.5 15C11.6356 15 15 11.6356 15 7.5ZM6.3491 5.75448H5.19821C5.19821 4.48519 6.23072 3.45269 7.5 3.45269C8.76928 3.45269 9.80179 4.48519 9.80179 5.75448C9.80179 6.39871 9.52905 7.01791 9.05326 7.45309L8.07545 8.34804V9.24552H6.92455V7.84122L8.27625 6.60401C8.51782 6.38297 8.6509 6.08131 8.6509 5.75448C8.6509 5.11983 8.13464 4.60358 7.5 4.60358C6.86536 4.60358 6.3491 5.11983 6.3491 5.75448ZM6.92455 10.3964H8.07545V11.5473H6.92455V10.3964Z" fill="white"/>
</svg>
