<svg width="17" height="17" viewBox="0 0 17 17" fill="none" xmlns="http://www.w3.org/2000/svg">
<path d="M12.1498 10.6918H11.3771L11.1098 10.4245C12.0623 9.32134 12.6358 7.88765 12.6358 6.31791C12.6358 2.82847 9.8073 0 6.31791 0C2.82852 0 0 2.82847 0 6.31791C0 9.80735 2.82847 12.6358 6.31791 12.6358C7.88765 12.6358 9.32134 12.0623 10.4245 11.1147L10.6918 11.382V12.1498L15.5517 17L17 15.5517L12.1498 10.6918ZM6.31791 10.6918C3.90255 10.6918 1.94398 8.73328 1.94398 6.31791C1.94398 3.90255 3.90255 1.94398 6.31791 1.94398C8.73328 1.94398 10.6918 3.90255 10.6918 6.31791C10.6918 8.73328 8.73328 10.6918 6.31791 10.6918Z" fill="white"/>
</svg>
