<svg width="141" height="101" viewBox="0 0 141 101" fill="none" xmlns="http://www.w3.org/2000/svg">
<path d="M116.478 47.1626C116.478 73.2098 95.1619 94.3252 68.8667 94.3252C42.5714 94.3252 21.2549 73.2098 21.2549 47.1626C21.2549 21.1154 42.5714 0 68.8667 0C95.1619 0 116.478 21.1154 116.478 47.1626Z" fill="#F5F5F5"/>
<g>
<path d="M44.1139 27.1124L12.9114 31.427L15.0633 45.9888C17.3945 51.0225 22.1645 61.1978 22.5949 61.6292C23.0253 62.0607 41.7827 55.3371 51.1076 51.9214L50.5696 44.9101L47.8797 37.3596V34.1236L44.1139 27.1124Z" fill="#FF9A51"/>
<path d="M5.23657 6.7363C5.23657 6.7363 18.0064 5.77044 27.2351 5.28209C34.5536 4.90226 38.3523 4.94566 40.8848 5.17356C46.6045 5.68363 46.8191 12.5857 44.6729 20.9855C44.6729 20.9855 43.1813 20.5514 41.5502 21.4196C41.5502 21.4196 38.9104 20.5514 37.0432 22.2877C37.0432 22.2877 35.4121 21.3327 33.0512 22.7978C33.0512 22.7978 31.0982 22.1467 29.2417 23.59C29.2417 23.59 26.9131 22.635 24.6596 24.0024C24.6596 24.0024 21.8374 23.373 19.6375 24.8706C19.6375 24.8706 17.8133 23.6985 15.0769 25.2504C15.0769 25.2504 11.2781 24.7621 8.50952 26.9868C8.52025 26.9868 14.8086 7.91921 5.23657 6.7363Z" fill="#685A5A"/>
<path d="M4.42109 7.15953C6.24535 7.05101 13.081 10.4369 7.25407 27.3558C7.25407 27.3558 13.6497 50.9597 14.6155 56.9285C15.5813 62.8973 16.0749 67.6398 16.7724 68.7901C17.5343 70.0598 18.5967 70.8521 22.0306 70.2335C25.4645 69.6149 35.2297 68.063 40.8098 68.063C46.3899 68.063 53.408 68.5079 54.2235 72.4039C54.7064 74.7155 53.3543 77.179 51.7554 80.4673C50.0384 84.016 48.7829 88.0639 48.3751 93.3816C48.0425 97.8202 48.5361 100.653 48.5361 100.653V100.978C48.5361 100.978 46.1324 100.674 45.789 100.49L45.7675 100.143L45.1451 100.002C45.1451 100.002 44.8447 97.6465 43.8038 97.0388C42.7628 96.4202 38.3631 93.7831 26.2801 93.7831C14.197 93.7831 8.21985 94.8683 8.21985 94.8683L7.82281 95.5954L6.56728 95.4544L6.1917 95.921L3.24068 95.628V95.1179L2.31782 94.6838C2.31782 94.6838 2.18905 92.5459 2.65048 90.0173C3.11191 87.4887 5.16153 74.824 5.16153 66.7933C5.16153 58.7625 0.804752 22.6784 0.772559 22.4614C0.718904 22.1466 0.611595 21.7234 0.536478 21.2351C0.160894 18.815 -1.62045 7.50681 4.42109 7.15953Z" fill="#685A5A"/>
<path d="M22.5564 68.584C22.5564 68.584 24.327 65.9034 27.9433 64.4818C31.4309 63.1035 43.5784 58.2416 45.1451 57.5579C46.7225 56.8742 58.5266 52.0015 67.165 52.0015C75.8035 52.0015 82.8001 54.0309 84.9999 58.2633C84.9999 58.2633 78.5399 59.2726 74.2475 61.1718C69.9551 63.0709 57.9149 69.4196 55.4897 72.3389C55.4897 72.3389 55.5649 68.1824 48.0317 67.1623C41.4429 66.2615 26.5805 67.3685 22.5564 68.584Z" fill="#685A5A"/>
<path d="M49.9741 100.371C49.9741 100.371 49.3839 93.5987 50.4891 88.3244C51.3154 84.4393 55.6937 74.1621 56.5521 73.2939C57.4106 72.4257 66.6392 66.2724 71.1248 64.1128C74.8055 62.333 79.3125 60.1625 84.8282 59.5873C84.8282 59.5873 81.4909 68.5514 80.4715 72.1869C79.452 75.8225 80.0422 80.7603 79.1837 81.6285C78.3253 82.4967 49.9741 100.371 49.9741 100.371Z" fill="#685A5A"/>
<path d="M51.5622 43.7429C50.6929 40.8779 48.9009 38.3167 48.9009 38.3167C49.6842 32.1634 46.1967 23.8071 45.1772 22.5048C44.6514 21.832 43.192 21.6366 41.5502 22.5048C41.5502 22.5048 38.9103 21.6366 37.0432 23.373C37.0432 23.373 35.4121 22.418 33.0512 23.8831C33.0512 23.8831 31.0982 23.2319 29.2417 24.6753C29.2417 24.6753 26.9131 23.7203 24.6596 25.0877C24.6596 25.0877 21.8374 24.4582 19.6375 25.9559C19.6375 25.9559 17.8133 24.7838 15.0769 26.3357C15.0769 26.3357 11.1923 25.9559 8.50952 28.0721C8.50952 28.0721 13.714 48.3986 15.3237 55.0402C16.4397 59.6525 17.1801 67.4445 18.0601 68.3344C18.8756 69.1591 21.2794 68.5514 21.2794 68.5514C21.2794 68.5514 21.3438 67.6181 22.7924 66.153C24.8635 64.0585 36.2383 59.685 39.7903 58.2959C43.2778 56.9285 53.5259 53.5751 53.5259 53.5751C53.5259 53.5751 52.5494 46.9986 51.5622 43.7429ZM18.0923 46.7273C17.7703 46.825 17.3626 46.4126 17.2016 45.8048C17.0299 45.1971 17.1587 44.6328 17.4806 44.546C17.8025 44.4483 18.2103 44.8607 18.3713 45.4684C18.543 46.0653 18.4142 46.6296 18.0923 46.7273ZM18.8649 35.1804C18.543 35.2672 18.1459 34.844 17.985 34.2362C17.824 33.6285 17.9635 33.0642 18.2854 32.9773C18.6074 32.8905 19.0044 33.3138 19.1654 33.9215C19.3263 34.5292 19.1868 35.0936 18.8649 35.1804ZM22.5134 43.222C22.8139 43.1352 23.1787 43.515 23.329 44.0685C23.4792 44.6219 23.3719 45.132 23.0714 45.2188C22.771 45.3056 22.4061 44.9258 22.2559 44.3723C22.1057 43.8297 22.2237 43.3088 22.5134 43.222ZM23.6187 57.5037C23.2968 57.6122 22.8783 57.2107 22.6851 56.6138C22.492 56.0169 22.5993 55.4526 22.9105 55.3441C23.2324 55.2355 23.6509 55.6371 23.8441 56.234C24.048 56.82 23.9406 57.3952 23.6187 57.5037ZM23.887 34.323C23.5865 34.399 23.2324 34.0192 23.0822 33.4657C22.9427 32.9122 23.0607 32.4022 23.3612 32.3154C23.6616 32.2285 24.0158 32.6192 24.166 33.1727C24.3055 33.7262 24.1875 34.2471 23.887 34.323ZM27.2458 42.0608C27.5033 41.9848 27.8253 42.3104 27.954 42.7987C28.0828 43.2871 27.9862 43.732 27.7287 43.7972C27.4711 43.8623 27.1492 43.5476 27.0204 43.0592C26.8917 42.5708 26.9882 42.1367 27.2458 42.0608ZM28.233 55.8107C27.9433 55.9084 27.557 55.5394 27.3853 54.9968C27.2136 54.4542 27.2994 53.9333 27.5999 53.8356C27.8896 53.7379 28.276 54.1069 28.4477 54.6495C28.6194 55.1921 28.5228 55.7131 28.233 55.8107ZM28.5764 32.9991C28.3189 33.0642 28.0077 32.7277 27.8789 32.2502C27.7501 31.7727 27.8575 31.3169 28.115 31.2518C28.3725 31.1867 28.6837 31.5231 28.8125 32.0006C28.9413 32.489 28.834 32.9339 28.5764 32.9991ZM31.3557 42.7879C31.1197 42.853 30.8192 42.5491 30.6904 42.1042C30.5617 41.6592 30.6582 41.236 30.8943 41.1709C31.1304 41.1058 31.4309 41.4096 31.5596 41.8546C31.6884 42.3104 31.5918 42.7228 31.3557 42.7879ZM31.5596 31.3712C31.4416 30.9262 31.5382 30.503 31.785 30.4379C32.0318 30.3728 32.3108 30.6875 32.4288 31.1324C32.5469 31.5774 32.4503 32.0006 32.2035 32.0657C31.9674 32.1309 31.6777 31.827 31.5596 31.3712ZM32.8366 54.2046C32.5791 54.2914 32.2464 53.9767 32.0962 53.4992C31.9459 53.0217 32.0211 52.5767 32.2786 52.4899C32.5361 52.4031 32.8688 52.7178 33.019 53.1953C33.1693 53.6728 33.0834 54.1178 32.8366 54.2046ZM34.5214 42.0391C34.3282 42.0933 34.0814 41.8437 33.9741 41.4747C33.8668 41.1058 33.9419 40.7585 34.1458 40.7042C34.339 40.65 34.5858 40.8996 34.6931 41.2686C34.8004 41.6375 34.7145 41.9848 34.5214 42.0391ZM35.3906 31.3929C35.1867 31.4472 34.9506 31.1867 34.854 30.8177C34.7575 30.4487 34.8433 30.1015 35.0365 30.0472C35.2296 29.9929 35.4764 30.2534 35.573 30.6224C35.6696 30.9914 35.5837 31.3386 35.3906 31.3929ZM36.3993 53.0651C36.1632 53.141 35.852 52.848 35.7125 52.4139C35.573 51.969 35.6481 51.5566 35.8842 51.4698C36.1203 51.3938 36.4315 51.6868 36.571 52.1209C36.7212 52.5659 36.6461 52.9783 36.3993 53.0651ZM37.5046 41.3228C37.3114 41.3771 37.0646 41.1275 36.9573 40.7585C36.85 40.3895 36.9251 40.0531 37.129 39.988C37.3329 39.9229 37.569 40.1833 37.6763 40.5523C37.7836 40.9213 37.7085 41.2686 37.5046 41.3228ZM38.3953 30.7309C38.2021 30.7852 37.9553 30.5247 37.8587 30.1557C37.7621 29.7868 37.848 29.4503 38.0411 29.3961C38.2343 29.3418 38.4811 29.6023 38.5777 29.9712C38.6743 30.3402 38.5884 30.6766 38.3953 30.7309ZM39.5435 52.186C39.3503 52.2511 39.0928 52.0124 38.9747 51.6434C38.8567 51.2744 38.9211 50.9272 39.1142 50.862C39.3074 50.7969 39.5649 51.0357 39.683 51.4047C39.801 51.7736 39.7366 52.1209 39.5435 52.186ZM40.4771 40.7476C40.3054 40.8019 40.0908 40.574 39.9942 40.2593C39.8976 39.9446 39.9727 39.6407 40.1444 39.5864C40.3161 39.5322 40.5307 39.7601 40.6273 40.0748C40.7239 40.3895 40.6488 40.6934 40.4771 40.7476ZM41.3785 30.2208C41.2068 30.2643 40.9922 30.0472 40.9063 29.7216C40.8205 29.3961 40.8956 29.1031 41.0673 29.0488C41.239 29.0054 41.4536 29.2224 41.5394 29.548C41.6253 29.8736 41.5502 30.1666 41.3785 30.2208ZM42.5052 51.3504C42.3121 51.4155 42.0545 51.1768 41.9365 50.8078C41.8184 50.4388 41.8828 50.1024 42.076 50.0373C42.2691 49.9722 42.5267 50.2109 42.6447 50.5799C42.7628 50.9489 42.6984 51.2853 42.5052 51.3504ZM43.3744 40.3461C43.2027 40.4004 42.9988 40.1833 42.913 39.8686C42.8271 39.5539 42.8915 39.2609 43.0525 39.2066C43.2242 39.1523 43.4281 39.3694 43.5139 39.6841C43.5998 39.9988 43.5354 40.2918 43.3744 40.3461ZM44.2651 29.9821C44.0934 30.0255 43.8895 29.8085 43.8037 29.4937C43.7178 29.179 43.7929 28.886 43.9646 28.8426C44.1363 28.7992 44.3402 29.0162 44.4261 29.331C44.5119 29.6457 44.4368 29.9387 44.2651 29.9821ZM45.4455 50.6667C45.2738 50.721 45.0485 50.5148 44.9519 50.1892C44.8446 49.8745 44.909 49.5706 45.0699 49.5055C45.2309 49.4404 45.467 49.6574 45.5635 49.983C45.6709 50.2977 45.6172 50.6016 45.4455 50.6667ZM45.7352 39.912C45.5635 39.9663 45.3597 39.7492 45.2738 39.4345C45.188 39.1198 45.2523 38.8268 45.4133 38.7725C45.585 38.7182 45.7889 38.9353 45.8747 39.25C45.9606 39.5647 45.8962 39.8577 45.7352 39.912ZM47.3342 38.9787C47.259 38.7074 47.3127 38.4469 47.4629 38.4035C47.6132 38.3601 47.7956 38.5446 47.8707 38.8268C47.9458 39.0981 47.8922 39.3585 47.7419 39.4019C47.6024 39.4454 47.42 39.2609 47.3342 38.9787ZM48.3214 50.2543C48.1497 50.3086 47.9351 50.1024 47.8385 49.7877C47.7419 49.4729 47.7956 49.1799 47.9565 49.1257C48.1282 49.0714 48.3429 49.2776 48.4394 49.5923C48.5467 49.907 48.4931 50.2001 48.3214 50.2543Z" fill="#685A5A"/>
</g>
<g clip-path="url(#clip1)">
<path d="M117.862 79.5965C116.043 79.5965 114.779 79.0298 113.843 78.3856V80.936C113.843 83.152 112.04 85.0439 109.824 85.0439H107.145C106.405 85.0439 105.806 85.6431 105.806 86.3835C105.806 87.1239 106.405 87.723 107.145 87.723H128.578C129.318 87.723 129.917 87.1239 129.917 86.3835C129.917 85.6431 129.318 85.0439 128.578 85.0439H125.899C123.683 85.0439 121.88 83.152 121.88 80.936V78.386C120.944 79.0296 119.681 79.5965 117.862 79.5965Z" fill="#FF9A51"/>
<path d="M136.704 55.4847H132.596V52.5589C134.152 52.0041 135.276 50.4418 135.276 48.6977V43.3395C135.276 42.5991 134.676 42 133.936 42H128.578C127.837 42 127.238 42.5991 127.238 43.3395V48.6977C127.238 50.4418 128.362 52.0041 129.917 52.5589V55.4847H119.201V52.0938L119.97 51.5275C122.594 49.6098 124.491 48.1352 124.491 45.8564C124.491 43.694 122.725 42.0013 120.473 42.0013C119.319 42.0013 118.437 42.4355 117.793 43.0072C117.152 42.4356 116.268 42.0013 115.114 42.0013C112.862 42.0013 111.096 43.694 111.096 45.8564C111.096 48.1339 112.99 49.6058 115.611 51.521L116.522 52.1931V55.4847H105.806V52.5589C107.361 52.0041 108.485 50.4418 108.485 48.6977V43.3395C108.485 42.5991 107.886 42 107.145 42H101.787C101.047 42 100.447 42.5991 100.447 43.3395V48.6977C100.447 50.4418 101.571 52.0041 103.127 52.5589V55.4847H99.1079C96.892 55.4847 95 57.2874 95 59.5033V67.3639C96.9527 67.8086 97.4469 67.2863 98.0192 66.6471C98.6942 65.8937 99.7071 64.8615 101.787 64.8615C103.864 64.8615 104.791 65.8937 105.463 66.6471C105.997 67.2423 106.263 67.5406 107.145 67.5406C108.027 67.5406 108.294 67.2423 108.827 66.6471C109.5 65.8937 110.426 64.8615 112.503 64.8615C114.581 64.8615 115.507 65.8937 116.179 66.6471C116.713 67.2423 116.98 67.5406 117.862 67.5406C118.743 67.5406 119.01 67.2423 119.544 66.6471C120.216 65.8937 121.142 64.8615 123.22 64.8615C125.297 64.8615 126.223 65.8937 126.896 66.6471C127.429 67.2423 127.696 67.5406 128.578 67.5406C129.46 67.5406 129.726 67.2423 130.26 66.6471C130.932 65.8937 131.859 64.8615 133.936 64.8615C136.016 64.8615 137.029 65.8937 137.704 66.6471C138.278 67.287 138.775 67.8072 140.723 67.3639V59.5033C140.723 57.2874 138.92 55.4847 136.704 55.4847Z" fill="#FF9A51"/>
<path d="M135.618 68.4341C135.085 67.8389 134.818 67.5406 133.936 67.5406C133.054 67.5406 132.787 67.8389 132.254 68.4341C131.581 69.1875 130.655 70.2197 128.578 70.2197C126.5 70.2197 125.574 69.1875 124.902 68.4341C124.368 67.8389 124.101 67.5406 123.22 67.5406C122.338 67.5406 122.071 67.8389 121.537 68.4341C120.865 69.1875 119.939 70.2197 117.862 70.2197C115.784 70.2197 114.858 69.1875 114.186 68.4341C113.652 67.8389 113.385 67.5406 112.503 67.5406C111.622 67.5406 111.355 67.8389 110.821 68.4341C110.149 69.1875 109.223 70.2197 107.145 70.2197C105.068 70.2197 104.142 69.1875 103.469 68.4341C102.936 67.8389 102.669 67.5406 101.787 67.5406C100.905 67.5406 100.638 67.8389 100.105 68.4341C99.042 69.6245 97.7687 70.5485 95 70.079V75.5778C95 76.3182 95.5991 76.9174 96.3395 76.9174C98.4169 76.9174 99.4324 75.8852 100.105 75.1318C100.638 74.5366 100.905 74.2383 101.787 74.2383C102.669 74.2383 102.936 74.5366 103.469 75.1318C104.142 75.8852 105.068 76.9174 107.145 76.9174C109.223 76.9174 110.149 75.8852 110.821 75.1318C111.355 74.5366 111.622 74.2383 112.503 74.2383C113.385 74.2383 113.652 74.5366 114.186 75.1318C114.858 75.8852 115.784 76.9174 117.862 76.9174C119.939 76.9174 120.865 75.8852 121.537 75.1318C122.071 74.5366 122.338 74.2383 123.22 74.2383C124.101 74.2383 124.368 74.5366 124.902 75.1318C125.574 75.8852 126.5 76.9174 128.578 76.9174C130.655 76.9174 131.581 75.8852 132.254 75.1318C132.787 74.5366 133.054 74.2383 133.936 74.2383C134.818 74.2383 135.085 74.5366 135.618 75.1318C136.291 75.8852 137.306 76.9174 139.383 76.9174C140.124 76.9174 140.723 76.3182 140.723 75.5778V70.0817C138.288 70.495 136.983 69.958 135.618 68.4341Z" fill="#685A5A"/>
<path d="M106.726 44.2571H102.036C102.036 46.6024 101.754 50.8239 104.381 50.8239C107.008 50.8239 106.726 46.6024 106.726 44.2571Z" fill="#685A5A"/>
<path d="M133.471 44.2571H128.781C128.781 46.6024 128.499 50.8239 131.126 50.8239C133.753 50.8239 133.471 46.6024 133.471 44.2571Z" fill="#685A5A"/>
</g>
<defs>
<clipPath id="clip0">
<rect width="85" height="96" fill="white" transform="translate(0 5)"/>
</clipPath>
<clipPath id="clip1">
<rect width="45.723" height="45.723" fill="white" transform="translate(95 42)"/>
</clipPath>
</defs>
</svg>
