<svg width="14" height="18" viewBox="0 0 14 18" fill="none" xmlns="http://www.w3.org/2000/svg">
<path d="M6.84534 8.80316C8.84662 8.80316 10.4691 6.83252 10.4691 4.40161C10.4691 1.97063 9.93644 0 6.84534 0C3.75423 0 3.22144 1.97063 3.22144 4.40161C3.22144 6.83252 4.84395 8.80316 6.84534 8.80316Z" fill="#252525"/>
<path d="M0.000713644 15.5234C9.56102e-05 15.3752 -0.000522424 15.4817 0.000713644 15.5234V15.5234Z" fill="#252525"/>
<path d="M13.6897 15.6395C13.6916 15.5989 13.6904 15.358 13.6897 15.6395V15.6395Z" fill="#252525"/>
<path d="M13.682 15.3458C13.6148 11.1111 13.0618 9.90444 8.82959 9.14062C8.82959 9.14062 8.23384 9.89976 6.84527 9.89976C5.4567 9.89976 4.86085 9.14062 4.86085 9.14062C0.674837 9.89611 0.0881415 11.0849 0.0109989 15.2083C0.00467318 15.545 0.00174178 15.5627 0.000610352 15.5236C0.000867494 15.5968 0.00117595 15.7323 0.00117595 15.9685C0.00117595 15.9685 1.00876 17.9997 6.84527 17.9997C12.6817 17.9997 13.6894 15.9685 13.6894 15.9685C13.6894 15.8167 13.6895 15.7112 13.6896 15.6394C13.6885 15.6636 13.6862 15.6167 13.682 15.3458Z" fill="#252525"/>
</svg>
