<svg width="16" height="18" viewBox="0 0 16 18" fill="none" xmlns="http://www.w3.org/2000/svg">
<path d="M15.681 10.0143C16.1966 5.67407 15.4333 2.93396 14.0564 1.69462L14.0571 1.6939C11.8348 -0.422567 4.32957 -0.735824 1.67085 1.78896C0.476869 3.02398 0.0563118 4.83655 0.0102234 7.08048C-0.035865 9.32513 -0.090595 13.53 3.82764 14.6707H3.83124L3.82764 16.4127C3.82764 16.4127 3.80099 17.1184 4.2518 17.2603C4.76741 17.4273 5.00073 17.0997 6.60447 15.1841C9.28623 15.4167 11.3458 14.8838 11.5799 14.8061C12.1214 14.6246 15.1856 14.2191 15.681 10.0143ZM6.86875 13.9585C6.86875 13.9585 5.1714 16.0749 4.64355 16.6244C4.47072 16.803 4.28132 16.7864 4.2842 16.4321C4.2842 16.1995 4.29716 13.5401 4.29716 13.5401C0.975199 12.588 1.17107 9.00755 1.20708 7.13449C1.24309 5.26071 1.58587 3.72611 2.59694 2.69272C4.92944 0.505682 11.5093 0.994651 13.1857 2.5703C15.2352 4.38719 14.5057 9.52029 14.5101 9.69528C14.0888 13.2052 11.6058 13.4277 11.1492 13.5797C10.9541 13.6445 9.14293 14.1104 6.86875 13.9585Z" fill="#8B66A9"/>
<path d="M7.80779 3.104C7.53054 3.104 7.53054 3.53608 7.80779 3.53968C9.95882 3.55625 11.7303 5.05556 11.7498 7.80574C11.7498 8.09595 12.1747 8.09235 12.1711 7.80214H12.1703C12.1473 4.8388 10.213 3.12057 7.80779 3.104Z" fill="#8B66A9"/>
<path d="M10.6371 7.35016C10.6306 7.63677 11.0548 7.65045 11.0584 7.36024C11.0937 5.72626 10.0862 4.38034 8.19298 4.23847C7.91573 4.21831 7.88692 4.65399 8.16345 4.67415C9.80535 4.79873 10.6702 5.91926 10.6371 7.35016Z" fill="#8B66A9"/>
<path d="M10.1834 9.20892C9.8277 9.00297 9.46548 9.13115 9.31569 9.33351L9.00243 9.73894C8.84328 9.9449 8.54587 9.91753 8.54587 9.91753C6.37539 9.34359 5.79497 7.07229 5.79497 7.07229C5.79497 7.07229 5.76832 6.7648 5.96708 6.59989L6.35883 6.27583C6.55471 6.12028 6.67857 5.74581 6.47909 5.37783C5.94619 4.41501 5.58829 4.08303 5.4061 3.8281C5.21454 3.5883 4.92649 3.53429 4.62691 3.69632H4.62043C3.99752 4.0607 3.31555 4.74267 3.53375 5.4448C3.90606 6.18509 4.59019 8.54496 6.77074 10.328C7.79549 11.1713 9.41723 12.0354 10.1057 12.2349L10.1122 12.245C10.7905 12.4711 11.4502 11.7625 11.8023 11.1209V11.1158C11.9586 10.8055 11.9067 10.5116 11.6784 10.3194C11.2737 9.92473 10.6631 9.48905 10.1834 9.20892Z" fill="#8B66A9"/>
<path d="M8.48989 5.84532C9.18194 5.88565 9.51752 6.24715 9.55352 6.98961C9.56649 7.27982 9.98776 7.25966 9.9748 6.96944C9.92871 6.00015 9.42318 5.46005 8.51294 5.40964C8.23568 5.39308 8.20976 5.82876 8.48989 5.84532Z" fill="#8B66A9"/>
</svg>
