<svg width="32" height="22" viewBox="0 0 32 22" fill="none" xmlns="http://www.w3.org/2000/svg">
<path d="M22 11.5C18.8333 9.5 12.4 5.4 12 5V17L22 11.5Z" fill="white"/>
<path d="M30.5818 3.42097C30.222 2.08327 29.1673 1.02877 27.8298 0.668567C25.3863 0 15.6122 0 15.6122 0C15.6122 0 5.83852 0 3.39505 0.643219C2.08327 1.00304 1.00285 2.08346 0.643029 3.42097C0 5.86425 0 10.9313 0 10.9313C0 10.9313 0 16.0239 0.643029 18.4416C1.00323 19.7791 2.05754 20.8336 3.39524 21.1938C5.86425 21.8626 15.6126 21.8626 15.6126 21.8626C15.6126 21.8626 25.3863 21.8626 27.8298 21.2194C29.1675 20.8594 30.222 19.8049 30.5822 18.4673C31.225 16.0239 31.225 10.957 31.225 10.957C31.225 10.957 31.2507 5.86425 30.5818 3.42097ZM12.5004 15.6124V6.25018L20.628 10.9313L12.5004 15.6124Z" fill="#FF0000"/>
</svg>
